<?xml version="1.0" encoding="utf-8"?>
<!-- Generator: Adobe Illustrator 27.9.0, SVG Export Plug-In . SVG Version: 6.00 Build 0)  -->
<svg version="1.1" id="Warstwa_1" xmlns="http://www.w3.org/2000/svg" xmlns:xlink="http://www.w3.org/1999/xlink" x="0px" y="0px"
	 viewBox="0 0 201.5 70" style="enable-background:new 0 0 201.5 70;" xml:space="preserve">
<style type="text/css">
	.st0{fill:#ECF0EC;}
	.st1{fill:#FFFFFF;filter:url(#Adobe_OpacityMaskFilter);}
	.st2{mask:url(#path-10-outside-1_339:55669_00000099651388943458896420000012285066786253445259_);fill:#ECF0EC;}
	.st3{fill:#FFFFFF;filter:url(#Adobe_OpacityMaskFilter_00000054240405290128485740000011954366720069238434_);}
	.st4{mask:url(#path-10-outside-1_339:55669_00000054979936075889968510000014467787371587587741_);fill:#ECF0EC;}
	.st5{fill:#FFFFFF;filter:url(#Adobe_OpacityMaskFilter_00000129926589842512706840000010431344617077081237_);}
	.st6{mask:url(#path-10-outside-1_339:55669_00000054969719097886530460000013980029244576352187_);fill:#ECF0EC;}
	.st7{fill:#FFFFFF;filter:url(#Adobe_OpacityMaskFilter_00000043435994335010564130000002035562036295887035_);}
	.st8{mask:url(#path-10-outside-1_339:55669_00000178180992152837586590000016094212355234682253_);fill:#ECF0EC;}
	.st9{fill:#FFFFFF;filter:url(#Adobe_OpacityMaskFilter_00000054946340394406047430000012169884390533252534_);}
	.st10{mask:url(#path-10-outside-1_339:55669_00000041257820006217942810000010378333196339762352_);fill:#ECF0EC;}
	.st11{fill:#FFFFFF;filter:url(#Adobe_OpacityMaskFilter_00000051372122222586099930000014330567046138268551_);}
	.st12{mask:url(#path-10-outside-1_339:55669_00000040573621576249879810000016601533366907391137_);fill:#ECF0EC;}
	.st13{fill:#FFFFFF;filter:url(#Adobe_OpacityMaskFilter_00000098179841647506628900000015323306264211577740_);}
	.st14{mask:url(#path-10-outside-1_339:55669_00000151535008632269703220000004935159254720457123_);fill:#ECF0EC;}
	.st15{fill:#FFFFFF;filter:url(#Adobe_OpacityMaskFilter_00000162350120346776626050000015853896306389499280_);}
	.st16{mask:url(#path-10-outside-1_339:55669_00000120526621003762177590000010227427899695847870_);fill:#ECF0EC;}
	.st17{fill:#FFFFFF;filter:url(#Adobe_OpacityMaskFilter_00000086656627247086307830000013792099804920604604_);}
	.st18{mask:url(#path-10-outside-1_339:55669_00000134938762592159093990000008155154943761419949_);fill:#ECF0EC;}
	.st19{fill:#FFFFFF;filter:url(#Adobe_OpacityMaskFilter_00000144309584663611727290000015383855864732022461_);}
	.st20{mask:url(#path-10-outside-1_339:55669_00000080184158529572248030000014183963753888544896_);fill:#ECF0EC;}
	.st21{fill:#FFFFFF;filter:url(#Adobe_OpacityMaskFilter_00000060006309262341231940000018030181969206816147_);}
	.st22{mask:url(#path-10-outside-1_339:55669_00000157308535592812109870000009406262635045377684_);fill:#ECF0EC;}
	.st23{fill:#FFFFFF;filter:url(#Adobe_OpacityMaskFilter_00000018229308108711589670000000449332680192840321_);}
	.st24{mask:url(#path-10-outside-1_339:55669_00000108271735842014824690000015943840513121822860_);fill:#ECF0EC;}
	.st25{fill:#FFFFFF;filter:url(#Adobe_OpacityMaskFilter_00000071552785216132838900000015205410903574052000_);}
	.st26{mask:url(#path-10-outside-1_339:55669_00000002367814599035056030000002247858341177150139_);fill:#ECF0EC;}
	.st27{fill:#FFFFFF;filter:url(#Adobe_OpacityMaskFilter_00000031196324313469332710000010670308224402336932_);}
	.st28{mask:url(#path-10-outside-1_339:55669_00000128459139480024480380000015195325364941517474_);fill:#ECF0EC;}
	.st29{fill:#FFFFFF;filter:url(#Adobe_OpacityMaskFilter_00000041997756863376120470000006007572430029658300_);}
	.st30{mask:url(#path-10-outside-1_339:55669_00000153678184447732955690000006302196440870717323_);fill:#ECF0EC;}
	.st31{fill-rule:evenodd;clip-rule:evenodd;fill:#ECF0EC;}
	.st32{clip-path:url(#SVGID_00000159471904743763031600000009271657334509720237_);fill:#ECF0EC;}
</style>
<g>
	<polygon class="st0" points="7.7,16.3 7.7,23 1.3,20.8 0,24.5 6.5,26.7 2.4,32.1 5.5,34.5 9.5,28.9 13.6,34.6 16.7,32.2 12.7,26.7 
		19.1,24.6 17.9,20.9 11.5,23 11.5,16.3 	"/>
	<path class="st0" d="M110.8,41.7c-3,0-4.7-2-4.7-4.6c0-2.5,1.7-4.6,4.7-4.6c3,0,4.7,2.1,4.7,4.6C115.4,39.7,113.7,41.7,110.8,41.7
		 M112.6,26.2c-2.4,0-4.9,1-6.2,3h-0.1v-2.3h-7.3v30.7h7.3V45.4c1,1.2,2.4,1.9,3.9,2.3c0,0,0,0,0,0h0c0.8,0.2,1.6,0.3,2.4,0.3
		c3.1,0,5.6-1.3,7.4-3.3c0,0,0,0,0,0c0.2-0.2,0.3-0.4,0.5-0.5c0,0,0,0,0.1-0.1c1.5-1.9,2.3-4.3,2.3-7
		C122.9,31.3,118.7,26.2,112.6,26.2 M186.3,34.2c0.4-2.1,2.2-3.2,4.3-3.2c2,0,3.7,1.3,4.1,3.2H186.3z M201.5,37.6
		c0-7-4.1-11.4-11.2-11.4c-6.7,0-11.3,4.1-11.3,10.9c0,7.1,5.1,10.9,11.8,10.9c2.4,0,4.7-0.6,6.5-1.7c1.9-1.2,3.3-2.9,3.9-5.3h-7
		c-0.8,1.4-1.9,1.9-3.5,1.9c-3,0-4.5-1.6-4.5-4.5h15.3V37.6z M36.5,41.5h-1V35h0.8c2.6,0,6.4-0.4,6.4,3.3
		C42.7,41.6,38.8,41.5,36.5,41.5 M35.5,23.4H36c2.1,0,4.5,0.2,4.5,2.9c0,2.6-2.2,2.9-4.2,2.9h-0.9V23.4z M44.5,31.4L44.5,31.4
		c2.4-1.3,3.3-3.5,3.3-6.2c0-5.7-3.6-7.8-8.9-7.8H27.7v30.1H30v0h0.9v0h8.9c5.5,0,10.9-2.1,10.9-8.4C50.6,34.9,48.8,32,44.5,31.4
		 M60.4,34.3c0.4-2.1,2.2-3.2,4.3-3.2c1.8,0,3.4,1.1,4,2.8c0,0.1,0,0.1,0.1,0.2c0,0.1,0,0.2,0.1,0.3c0,0,0,0,0,0H60.4z M72.1,29
		c-0.1-0.1-0.2-0.1-0.2-0.2c-1.9-1.6-4.4-2.4-7.6-2.4c-6.7,0-11.3,4.1-11.3,10.9c0,3.9,1.5,6.7,4,8.6c0,0,0,0,0,0
		c0.1,0.1,0.2,0.1,0.3,0.2c0.1,0,0.1,0.1,0.2,0.1c0.1,0,0.1,0.1,0.2,0.1c2,1.2,4.4,1.8,7.2,1.8c2.4,0,4.7-0.6,6.5-1.7
		c1.9-1.2,3.3-2.9,3.9-5.3h-7c-0.8,1.4-1.9,1.9-3.5,1.9c-1.1,0-2-0.2-2.7-0.7c-0.1-0.1-0.2-0.1-0.3-0.2c0,0,0,0,0,0
		c-0.1-0.1-0.2-0.2-0.3-0.3c-0.8-0.8-1.2-1.9-1.2-3.4h4.5v0h1.1v0h9.7v-0.8C75.5,34,74.3,31,72.1,29 M137.3,41.7c-3,0-4.7-2-4.7-4.6
		c0-0.1,0-0.2,0-0.3c0,0,0-0.1,0-0.1c0-0.1,0-0.1,0-0.2c0,0,0-0.1,0-0.1c0-0.1,0-0.1,0-0.2c0,0,0-0.1,0-0.1c0-0.1,0-0.2,0-0.2
		c0.1-0.6,0.4-1.2,0.8-1.7c0.3-0.3,0.6-0.6,0.9-0.9c0.7-0.5,1.7-0.9,2.9-0.9c3,0,4.7,2.1,4.7,4.6C142,39.7,140.3,41.7,137.3,41.7
		 M137.3,26.2c-2.6,0-5,0.6-7.1,1.8c0,0,0,0-0.1,0c-0.1,0.1-0.2,0.1-0.4,0.2c0,0,0,0,0,0c-2.9,1.8-4.8,4.9-4.8,8.9
		c0,1.6,0.3,3,0.8,4.3c0,0,0,0,0,0c1.8,4.3,6.4,6.6,11.5,6.6c6.6,0,12.3-3.9,12.3-10.9C149.6,30.2,143.9,26.2,137.3,26.2 M89.5,34.4
		c-1-0.2-3.3-0.4-3.3-1.8c0-1,1.4-1.4,2.3-1.4c1.2,0,2.8,0.4,3.9,1l2.4-4.6c-2.1-1-4.4-1.3-6.7-1.3c-4.5,0-9,2.2-9,7.3
		c0,3.2,1.7,4.4,3.6,5.1c0,0,0,0,0,0c0.1,0,0.2,0.1,0.4,0.1c0,0,0,0,0,0c0.2,0.1,0.4,0.1,0.6,0.2c2.3,0.6,4.5,0.7,4.5,2.3
		c0,1.1-1.4,1.6-2.3,1.6c-0.7,0-1.6-0.2-2.4-0.4c-0.1,0-0.3-0.1-0.4-0.1c0,0,0,0,0,0c-0.1-0.1-0.3-0.1-0.4-0.2
		c-0.9-0.4-1.8-0.8-2.4-1.3l-2.6,5.1c2.5,1.5,5.3,2.4,8.3,2.4c0.2,0,0.4,0,0.6,0c0,0,0,0,0,0c0.2,0,0.4,0,0.5,0c0,0,0,0,0.1,0
		c0.2,0,0.4,0,0.5-0.1c0,0,0,0,0,0h0c4.1-0.5,7.9-2.8,7.9-7.5C95.4,36.6,92.9,35,89.5,34.4 M171.5,32.7l0.4-0.4l5.7-5.3h-9.9
		l-7.5,7.4v-20h-7.3v33.1h7.3v-8.3l7.9,8.3h0.8h0.8h8.6l-10.9-11L171.5,32.7z"/>
</g>
</svg>
