<?xml version="1.0" encoding="utf-8"?>
<!-- Generator: Adobe Illustrator 27.9.0, SVG Export Plug-In . SVG Version: 6.00 Build 0)  -->
<svg version="1.1" id="Warstwa_1" xmlns="http://www.w3.org/2000/svg" xmlns:xlink="http://www.w3.org/1999/xlink" x="0px" y="0px"
	 viewBox="0 0 147.6 70" style="enable-background:new 0 0 147.6 70;" xml:space="preserve">
<style type="text/css">
	.st0{fill:#ECF0EC;}
	.st1{fill:#FFFFFF;filter:url(#Adobe_OpacityMaskFilter);}
	.st2{mask:url(#path-10-outside-1_339:55669_00000099651388943458896420000012285066786253445259_);fill:#ECF0EC;}
	.st3{fill:#FFFFFF;filter:url(#Adobe_OpacityMaskFilter_00000173860028653607426970000010092012926998353826_);}
	.st4{mask:url(#path-10-outside-1_339:55669_00000054979936075889968510000014467787371587587741_);fill:#ECF0EC;}
	.st5{fill:#FFFFFF;filter:url(#Adobe_OpacityMaskFilter_00000150818585028038644680000002744790572677035687_);}
	.st6{mask:url(#path-10-outside-1_339:55669_00000054969719097886530460000013980029244576352187_);fill:#ECF0EC;}
	.st7{fill:#FFFFFF;filter:url(#Adobe_OpacityMaskFilter_00000056390615235439577130000018396912741878392749_);}
	.st8{mask:url(#path-10-outside-1_339:55669_00000178180992152837586590000016094212355234682253_);fill:#ECF0EC;}
	.st9{fill:#FFFFFF;filter:url(#Adobe_OpacityMaskFilter_00000055689453933084906900000001720568709064842885_);}
	.st10{mask:url(#path-10-outside-1_339:55669_00000041257820006217942810000010378333196339762352_);fill:#ECF0EC;}
	.st11{fill:#FFFFFF;filter:url(#Adobe_OpacityMaskFilter_00000018938007296427168930000000936160479898306234_);}
	.st12{mask:url(#path-10-outside-1_339:55669_00000040573621576249879810000016601533366907391137_);fill:#ECF0EC;}
	.st13{fill:#FFFFFF;filter:url(#Adobe_OpacityMaskFilter_00000101802866363004226950000002316265388006833329_);}
	.st14{mask:url(#path-10-outside-1_339:55669_00000151535008632269703220000004935159254720457123_);fill:#ECF0EC;}
	.st15{fill:#FFFFFF;filter:url(#Adobe_OpacityMaskFilter_00000167366160404063224270000009752825504452220319_);}
	.st16{mask:url(#path-10-outside-1_339:55669_00000120526621003762177590000010227427899695847870_);fill:#ECF0EC;}
	.st17{fill:#FFFFFF;filter:url(#Adobe_OpacityMaskFilter_00000103956424041770323160000000222148766263965837_);}
	.st18{mask:url(#path-10-outside-1_339:55669_00000134938762592159093990000008155154943761419949_);fill:#ECF0EC;}
	.st19{fill:#FFFFFF;filter:url(#Adobe_OpacityMaskFilter_00000049928934345179800000000001226210439875763378_);}
	.st20{mask:url(#path-10-outside-1_339:55669_00000080184158529572248030000014183963753888544896_);fill:#ECF0EC;}
	.st21{fill:#FFFFFF;filter:url(#Adobe_OpacityMaskFilter_00000044864946188217757440000013570061738256517822_);}
	.st22{mask:url(#path-10-outside-1_339:55669_00000157308535592812109870000009406262635045377684_);fill:#ECF0EC;}
	.st23{fill:#FFFFFF;filter:url(#Adobe_OpacityMaskFilter_00000091705761975454097390000000460353705540216488_);}
	.st24{mask:url(#path-10-outside-1_339:55669_00000108271735842014824690000015943840513121822860_);fill:#ECF0EC;}
	.st25{fill:#FFFFFF;filter:url(#Adobe_OpacityMaskFilter_00000086685350652825582940000002719863178502510725_);}
	.st26{mask:url(#path-10-outside-1_339:55669_00000002367814599035056030000002247858341177150139_);fill:#ECF0EC;}
	.st27{fill:#FFFFFF;filter:url(#Adobe_OpacityMaskFilter_00000114067760480672094760000013444313409274697856_);}
	.st28{mask:url(#path-10-outside-1_339:55669_00000128459139480024480380000015195325364941517474_);fill:#ECF0EC;}
	.st29{fill:#FFFFFF;filter:url(#Adobe_OpacityMaskFilter_00000117665775481026981700000016308888657734531456_);}
	.st30{mask:url(#path-10-outside-1_339:55669_00000153678184447732955690000006302196440870717323_);fill:#ECF0EC;}
	.st31{fill-rule:evenodd;clip-rule:evenodd;fill:#ECF0EC;}
	.st32{clip-path:url(#SVGID_00000129185717692326276330000008636937615603577231_);fill:#ECF0EC;}
</style>
<g id="layer1_00000027606507261627019530000000339443377039237794_" transform="translate(-517.0633,-718.05005)">
	
		<g id="g24125_00000099632452534409361900000010652382004430479288_" transform="matrix(6.1049311,0,0,-6.1049311,549.47928,767.31564)">
		<path id="path24127_00000129924667345413318540000010041729284205335468_" class="st0" d="M-2.8,1.3c-0.1-0.1-0.4-0.2-0.6-0.2
			c-0.2,0-0.5,0.1-0.6,0.2c-0.2,0.2-0.3,0.5-0.3,0.9c0,0.4,0.1,1.1,0.9,1.2c0.1,0,0.4,0,0.6,0V1.3z M-2.8,5.2V4.3h-0.6
			c-1.6,0-2-1.2-2-2.1c0-0.6,0.2-1.2,0.6-1.6C-4.4,0.3-4,0.1-3.6,0.1c0.3,0,0.6,0.1,0.8,0.2l0-0.1h1.1v5L-2.8,5.2"/>
	</g>
	
		<g id="g24129_00000127018245597647228050000002975611643917207991_" transform="matrix(6.1049311,0,0,-6.1049311,585.89519,747.90807)">
		<path id="path24131_00000052786948689862014840000014256565507561682067_" class="st0" d="M-5.8-0.3C-5.7,0.1-5.4,0.3-5,0.3
			c0.4,0,0.7-0.3,0.7-0.6H-5.8z M-3.2-0.3c0,0.5-0.2,0.9-0.5,1.1C-4,1.1-4.4,1.3-5,1.3c-0.6,0-1.1-0.2-1.5-0.7
			C-6.8,0.2-6.9-0.3-6.9-1C-6.9-2-6.4-3-4.8-3c0.6,0,1.2,0.2,1.6,0.4v1C-3.4-1.8-4-2.1-4.8-2.1c-0.6,0-0.9,0.3-1,0.9h2.6l0,0
			C-3.1-0.8-3.2-0.5-3.2-0.3"/>
	</g>
	
		<g id="g24133_00000080169033186415376870000016607059429432144020_" transform="matrix(6.1049311,0,0,-6.1049311,653.33636,728.56764)">
		<path id="path24135_00000009556729045160245430000018086178405443857581_" class="st0" d="M-11.3-1.9c-0.4,0-0.7-0.1-0.9-0.2
			l0,0.1h-1.1v-4.1h1.1V-3c0.2,0.1,0.6,0.2,0.9,0.1c0.3-0.1,0.4-0.3,0.4-0.8v-2.4h1.1v2.6C-9.8-2.4-10.3-1.9-11.3-1.9"/>
	</g>
	
		<g id="g24137_00000072975211230677072600000015143210528286766524_" transform="matrix(6.1049311,0,0,-6.1049311,802.58972,729.77032)">
		<path id="path24139_00000097481419055301256170000009535997703968950405_" class="st0" d="M-23.7-1.8v-3.1
			C-23.9-5-24.3-5.1-24.6-5C-24.9-5-25-4.8-25-4.2v2.4h-1.1v-2.6c0-1.1,0.5-1.6,1.5-1.6c0.4,0,0.7,0.1,0.9,0.2l0-0.1h1.1v4.1H-23.7"
			/>
	</g>
	
		<g id="g24141_00000030468888154958270710000010244606637933807793_" transform="matrix(6.1049311,0,0,-6.1049311,697.0843,719.05006)">
		<path id="path24143_00000050657227123876103710000011399942830275436452_" class="st0" d="M-15-2.7h-1.1v-3.6
			c0-0.5,0.1-0.8,0.3-1.1c0.2-0.3,0.6-0.4,1.1-0.4c0.4,0,0.8,0.1,1,0.2v1c-0.1,0-0.6-0.1-0.8-0.1c-0.2,0-0.3,0-0.3,0.1
			C-15-6.6-15-6.4-15-6.2v1.7c0.4,0,1,0,1.3-0.1v1H-15V-2.7"/>
	</g>
	
		<g id="g24145_00000066475910160506986530000018072104786597567925_" transform="matrix(6.1049311,0,0,-6.1049311,746.78454,748.77497)">
		<path id="path24147_00000042701450305504392270000012150051969160273854_" class="st0" d="M-19.1-0.2c-0.3,0-0.6,0.1-0.7,0.2
			c-0.1,0-0.1,0.1-0.1,0.2c0,0.1,0.1,0.1,0.1,0.2c0.2,0.1,0.4,0.1,0.9,0.1c0.4-0.1,0.9-0.2,1-0.3v1c-0.5,0.3-1,0.3-1.5,0.3
			c-0.5,0-0.9-0.1-1.2-0.4c-0.3-0.2-0.5-0.6-0.5-1c0-0.7,0.4-1.1,1.4-1.3c0.2,0,0.5-0.1,0.6-0.2c0.1-0.1,0.2-0.1,0.2-0.2
			c0-0.1-0.1-0.2-0.2-0.2c-0.2-0.1-0.5-0.1-0.7,0c-0.6,0.1-1.1,0.3-1.3,0.3v-1c0.3-0.2,0.9-0.4,1.5-0.4c0.7,0,1.6,0.2,1.8,1.2
			c0.1,0.4,0,0.7-0.2,0.9C-18.1-0.5-18.5-0.4-19.1-0.2"/>
	</g>
</g>
</svg>
