<?xml version="1.0" encoding="utf-8"?>
<!-- Generator: Adobe Illustrator 27.9.0, SVG Export Plug-In . SVG Version: 6.00 Build 0)  -->
<svg version="1.1" id="Warstwa_1" xmlns="http://www.w3.org/2000/svg" xmlns:xlink="http://www.w3.org/1999/xlink" x="0px" y="0px"
	 viewBox="0 0 170.9 70" style="enable-background:new 0 0 170.9 70;" xml:space="preserve">
<style type="text/css">
	.st0{fill:#ECF0EC;}
	.st1{fill:#FFFFFF;filter:url(#Adobe_OpacityMaskFilter);}
	.st2{mask:url(#path-10-outside-1_339:55669_00000099651388943458896420000012285066786253445259_);fill:#ECF0EC;}
	.st3{fill:#FFFFFF;filter:url(#Adobe_OpacityMaskFilter_00000036942130947514517340000012196351664310514820_);}
	.st4{mask:url(#path-10-outside-1_339:55669_00000054979936075889968510000014467787371587587741_);fill:#ECF0EC;}
	.st5{fill:#FFFFFF;filter:url(#Adobe_OpacityMaskFilter_00000024717506144050676210000012853266153351756187_);}
	.st6{mask:url(#path-10-outside-1_339:55669_00000054969719097886530460000013980029244576352187_);fill:#ECF0EC;}
	.st7{fill:#FFFFFF;filter:url(#Adobe_OpacityMaskFilter_00000111894582464284109210000010054363284414920610_);}
	.st8{mask:url(#path-10-outside-1_339:55669_00000178180992152837586590000016094212355234682253_);fill:#ECF0EC;}
	.st9{fill:#FFFFFF;filter:url(#Adobe_OpacityMaskFilter_00000147214417307175143010000006140006523286983860_);}
	.st10{mask:url(#path-10-outside-1_339:55669_00000041257820006217942810000010378333196339762352_);fill:#ECF0EC;}
	.st11{fill:#FFFFFF;filter:url(#Adobe_OpacityMaskFilter_00000008861947530542852800000003553438598156609203_);}
	.st12{mask:url(#path-10-outside-1_339:55669_00000040573621576249879810000016601533366907391137_);fill:#ECF0EC;}
	.st13{fill:#FFFFFF;filter:url(#Adobe_OpacityMaskFilter_00000015340261019279156080000011147022460060903850_);}
	.st14{mask:url(#path-10-outside-1_339:55669_00000151535008632269703220000004935159254720457123_);fill:#ECF0EC;}
	.st15{fill:#FFFFFF;filter:url(#Adobe_OpacityMaskFilter_00000067937521635043174890000004979260951163855037_);}
	.st16{mask:url(#path-10-outside-1_339:55669_00000120526621003762177590000010227427899695847870_);fill:#ECF0EC;}
	.st17{fill:#FFFFFF;filter:url(#Adobe_OpacityMaskFilter_00000062901709947204312720000010367195763244827279_);}
	.st18{mask:url(#path-10-outside-1_339:55669_00000134938762592159093990000008155154943761419949_);fill:#ECF0EC;}
	.st19{fill:#FFFFFF;filter:url(#Adobe_OpacityMaskFilter_00000097467983110659585120000006298829468721536163_);}
	.st20{mask:url(#path-10-outside-1_339:55669_00000080184158529572248030000014183963753888544896_);fill:#ECF0EC;}
	.st21{fill:#FFFFFF;filter:url(#Adobe_OpacityMaskFilter_00000134954282304305177740000005741498906073219751_);}
	.st22{mask:url(#path-10-outside-1_339:55669_00000157308535592812109870000009406262635045377684_);fill:#ECF0EC;}
	.st23{fill:#FFFFFF;filter:url(#Adobe_OpacityMaskFilter_00000016055665090762606850000012265850847430576573_);}
	.st24{mask:url(#path-10-outside-1_339:55669_00000108271735842014824690000015943840513121822860_);fill:#ECF0EC;}
	.st25{fill:#FFFFFF;filter:url(#Adobe_OpacityMaskFilter_00000007424410142002834010000015801879254841076145_);}
	.st26{mask:url(#path-10-outside-1_339:55669_00000002367814599035056030000002247858341177150139_);fill:#ECF0EC;}
	.st27{fill:#FFFFFF;filter:url(#Adobe_OpacityMaskFilter_00000038404065005124569600000002218717227730428295_);}
	.st28{mask:url(#path-10-outside-1_339:55669_00000128459139480024480380000015195325364941517474_);fill:#ECF0EC;}
	.st29{fill:#FFFFFF;filter:url(#Adobe_OpacityMaskFilter_00000110428914430737346890000014987384506229866678_);}
	.st30{mask:url(#path-10-outside-1_339:55669_00000153678184447732955690000006302196440870717323_);fill:#ECF0EC;}
	.st31{fill-rule:evenodd;clip-rule:evenodd;fill:#ECF0EC;}
	.st32{clip-path:url(#SVGID_00000062193242086363490300000008909131529060147600_);fill:#ECF0EC;}
</style>
<g>
	<g>
		<path class="st0" d="M94.2,36.6c-0.3-0.4-0.6-0.7-1-1c-0.1-0.3-0.5-0.5-0.7-0.7c-0.1-0.3-0.3-0.4-0.5-0.6
			c-0.2-0.3-0.4-0.5-0.7-0.7c-0.2-0.3-0.5-0.6-0.8-0.8c-0.3-0.4-0.6-0.7-1-1c-0.2-0.3-0.4-0.5-0.7-0.7c-0.3-0.4-0.6-0.7-1-1
			c-0.2-0.4-0.5-0.6-0.8-0.8c-0.3-0.4-0.7-0.8-1.1-1.1c-0.1-0.2-0.3-0.4-0.6-0.6c-0.2-0.3-0.5-0.6-0.8-0.8c-0.2-0.3-0.4-0.5-0.7-0.7
			c-0.3-0.4-0.6-0.7-1-1c-0.4-0.5-0.9-1-1.4-1.4c-0.4-0.5-0.8-0.9-1.3-1.3c-0.3-0.4-0.7-0.8-1.1-1.1c-0.4-0.5-0.8-0.9-1.3-1.3
			c-0.2-0.3-0.5-0.6-0.8-0.8c-0.1-0.2-0.3-0.4-0.6-0.6c-0.2-0.3-0.5-0.6-0.8-0.8c-0.4-0.5-0.8-0.9-1.3-1.3c-0.3-0.4-0.6-0.7-1-1
			c-0.8-0.9-1.7-0.8-2.3,0.1c-0.2,0.3-0.1,0.6-0.1,1c0,0.4,0,0.8,0,1.3c0,0.3,0,0.6,0,0.8c0,0.3,0,0.6,0,0.8c0,0.2,0,0.4,0,0.6
			c0,0.4,0,0.8,0,1.3c0,0.4,0,0.7,0,1.1c0,0.4,0,0.8,0,1.3h0c0,0.5,0,0.9,0,1.4c0,0.4,0,0.7,0,1.1c0,0.4,0,0.8,0,1.3
			c0,0.3,0,0.6,0,1c0,0.2,0,0.5,0,0.7c0,0.3,0,0.6,0,1c0,0.3,0,0.6,0,0.8c0,0.3,0,0.6,0,1c0,0.3,0,0.6,0,0.8c0,0.2,0,0.5,0,0.7
			c0,0.2,0,0.5,0,0.7c0,0.3,0,0.6,0,0.8c0,0.2,0,0.4,0,0.6c0,0.3,0,0.6,0,0.8h0l0,0c0,0.3,0,0.6,0,0.8c0,0.9,0.4,1.4,1.2,1.4
			c0.9,0,1.3-0.5,1.3-1.4c0-0.3,0-0.6,0-0.8c0-0.3,0-0.6,0-0.8h0c0-0.2,0-0.4,0-0.6h0c0-0.3,0-0.6,0-0.8c0-0.2,0-0.5,0-0.7
			c0-0.2,0-0.5,0-0.7h0c0-0.3,0-0.6,0-0.8h0c0-0.3,0-0.6,0-1h0c0-0.3,0-0.6,0-0.8c0-0.3,0-0.6,0-1h0c0-0.2,0-0.5,0-0.7
			c0-0.3,0-0.6,0-1c0-0.4,0-0.8,0-1.3c0-0.3,0-0.6,0-1h0c0-0.5,0-1,0-1.5c0-0.4,0-0.8,0-1.3c0-0.4,0-0.7,0-1.1c0-0.4,0-0.8,0-1.3h0
			c0.1-0.2-0.1-0.5,0.3-0.6c0.1,0.2,0.3,0.4,0.6,0.6c0.3,0.4,0.7,0.8,1.1,1.1c0.4,0.5,0.8,0.9,1.3,1.3c0.4,0.5,0.9,1,1.4,1.4
			c0.3,0.4,0.7,0.8,1.1,1.1c0.3,0.4,0.7,0.8,1.1,1.1c0.2,0.3,0.5,0.6,0.8,0.8c0.2,0.3,0.4,0.5,0.7,0.7c0.2,0.3,0.4,0.5,0.7,0.7
			c0.3,0.4,0.6,0.7,1,1c0.2,0.3,0.5,0.6,0.8,0.8c0.3,0.4,0.6,0.7,1,1c0.2,0.3,0.5,0.6,0.8,0.8c0.2,0.3,0.4,0.5,0.7,0.7
			c0.4,0.5,0.8,0.9,1.3,1.3c0.1,0.2,0.3,0.4,0.6,0.6c0.2,0.3,0.4,0.5,0.7,0.7c0.1,0.2,0.3,0.4,0.6,0.6c0.3,0.4,0,0.4-0.3,0.4
			c-2.2,0-4.5,0-6.7,0c-0.1,0-0.4,0.1-0.4-0.2c0.3-0.2,0.5-0.4,0.7-0.7c0.3-0.2,0.5-0.4,0.7-0.7c0.4-0.3,0.7-0.6,1-1
			c0.6-0.5,0.6-0.5,0-1c-1.1-1.6-1.1-1.6-2.4-0.3c-0.1,0.1-0.1,0.2-0.2,0.3c-0.3,0.2-0.6,0.5-0.8,0.8l0,0h0
			c-0.3,0.3-0.6,0.6-0.9,0.8c-0.2,0.2-0.5,0.5-0.7,0.7c-0.3,0.2-0.5,0.4-0.7,0.7c-0.3,0.2-0.6,0.5-0.8,0.8c-0.5,0.4-0.6,0.9-0.3,1.4
			c0,0,0,0,0,0c0,0.1,0,0.2,0.1,0.3c0.2,0.5,0.7,0.6,1.2,0.6c4.6,0,9.3,0,13.9,0c0.7,0,1.1-0.2,1.3-0.9c0.2-0.2,0.1-0.4,0.1-0.6
			C94.6,37.1,94.5,36.9,94.2,36.6z"/>
		<path class="st0" d="M101.7,20.4c0-1.3,0.1-2.6-0.1-3.9c0-0.2,0-0.4-0.1-0.6c-0.6-1-1.5-1-2.4,0c-0.3,0.2-0.6,0.5-0.8,0.8h0
			c-0.5,0.4-0.9,0.8-1.3,1.3c-0.3,0.2-0.6,0.5-0.8,0.8c-0.3,0.2-0.6,0.5-0.8,0.8c-0.2,0.1-0.4,0.3-0.6,0.6l0,0h0
			c-0.5,0.4-0.9,0.8-1.3,1.3c-0.4,0.3-0.7,0.6-1,1l0,0h0c-0.6,0.5-1.1,1-1.5,1.5c-0.4,0.3-0.8,0.7-1.1,1.1c-0.4,0.3-0.7,0.6-1,1
			c-0.3,0.2-0.5,0.4-0.7,0.7c-0.3,0.3-0.7,0.6-1,1c-0.1,0.4,0.4,0.5,0.6,0.7c1.5,1.5,0.9,1.5,2.3,0.1c0.3-0.2,0.5-0.5,0.7-0.7
			c0.3-0.1,0.5-0.4,0.7-0.7c0.3-0.2,0.6-0.5,0.8-0.8c0.4-0.3,0.7-0.6,0.9-1c0.5-0.4,0.9-0.8,1.3-1.2c0.5-0.4,1-0.9,1.4-1.4
			c0.4-0.3,0.8-0.7,1.1-1.1c0.4-0.3,0.8-0.7,1.1-1.1c0.4-0.2,0.5-0.7,1-0.7c0,0.2,0,0.4,0,0.5c0,0.4,0,0.8,0,1.3c0,0.4,0,0.7,0,1.1
			c0,0.4,0,0.8,0,1.3c0,0.4,0,0.8,0,1.3c0,0.4,0,0.7,0,1.1c0,0,0,0,0,0c0,0,0,0,0,0c0,0.5,0,0.9,0,1.4c0,0.2,0,0.5,0,0.7
			c0,0.3,0,0.7,0,1c0,0.3,0,0.6,0,1c0,0.3,0,0.6,0,0.8c0,0.3,0,0.6,0,0.8c0,0.3,0,0.6,0,1c0,0.3,0,0.6,0,1c0,0.2,0,0.4,0,0.6
			c0,0.4,0,0.7,0,1.1c0,0.3,0,0.6,0,1c0,0.2,0,0.5,0,0.7c0,1,0.3,1.5,1.2,1.5c0.9,0.1,1.3-0.4,1.4-1.3c0-0.1,0-0.2,0-0.3
			c0.1-1.8,0.1-3.7,0-5.5c0,0,0,0,0,0c0.1-1.7,0.1-3.3,0-5c0,0,0,0,0,0c0,0,0,0,0,0c0,0,0,0,0,0c0-0.1,0.1-0.3,0-0.4
			c0.1-0.9,0.1-1.8,0-2.7c0,0,0,0,0,0c0,0,0,0,0,0C101.8,22.6,101.7,21.5,101.7,20.4z M101.6,18.1C101.6,18.1,101.6,18.1,101.6,18.1
			C101.6,18.1,101.6,18.1,101.6,18.1C101.6,18.1,101.5,18.1,101.6,18.1C101.5,18.1,101.6,18.1,101.6,18.1
			C101.6,18.1,101.6,18.1,101.6,18.1z M101.6,19.8L101.6,19.8C101.5,19.8,101.5,19.8,101.6,19.8C101.5,19.7,101.6,19.7,101.6,19.8
			C101.6,19.8,101.6,19.8,101.6,19.8z"/>
	</g>
	<g>
		<g>
			<path class="st0" d="M50.8,38.9v-8.7c0-1.2-0.6-1.5-1.3-1.5h-1.3v10.2h-2.4V15.2h4.4c1.6,0,3,1.3,3,3v7.3c0,0,0.1,1.9-0.9,2.1
				c0.9,0.5,0.9,2.2,0.9,2.2v9.1H50.8z M49.5,26.4c0.6,0,1.3-0.3,1.3-1.4v-6.4c0-0.9-0.6-1.2-1.3-1.2h-1.3v8.9H49.5z"/>
		</g>
		<g>
			<path class="st0" d="M145.7,38.9l-3.2-10.6v10.6h-2.4V16.2c0-0.7,0.5-0.9,0.8-0.9h1.6v8.6l3-8.6h2.5L144.2,26l4.1,13H145.7z"/>
		</g>
		<g>
			<path class="st0" d="M7.7,15.2C7.5,15.8,7.1,16.8,7,17c-0.2,0.3-0.5,0.7-1.3,0.7H3c-0.3,0-0.6,0.3-0.6,0.6v7.4h4.3l-0.8,1.8
				c-0.2,0.3-0.5,0.7-1.3,0.7H3c-0.3,0-0.6,0.2-0.6,0.6v9.6c0,0.4-0.3,0.7-0.7,0.7H0v-23c0-0.4,0.3-0.7,0.7-0.7H7.7z"/>
		</g>
		<g>
			<path class="st0" d="M27.2,15c1.6,0.1,2.9,1.4,2.9,3v18.2c0,1.6-1.3,2.9-2.9,3h-1.9c-1.7,0-3-1.4-3-3V18c0-1.7,1.4-3,3-3H27.2z
				 M26.4,37c0.7,0,1.3-0.6,1.3-1.3V18.5c0-0.7-0.6-1.3-1.3-1.3H26c-0.7,0-1.3,0.6-1.3,1.3v17.3c0,0.7,0.6,1.3,1.3,1.3H26.4z"/>
		</g>
		<g>
			<path class="st0" d="M121.8,15.2c0.7,0,1,0.5,1,0.9v22.7h-1.7c-0.6,0-0.7-0.3-0.7-0.5V15.2H121.8z"/>
		</g>
		<g>
			<path class="st0" d="M170.9,38.9h-2.7l-2.1-16.3L164,38.9h-2.7l3.6-23.7h1.3c1,0,1.2,0.6,1.3,1.3L170.9,38.9z"/>
		</g>
	</g>
	<g>
		<path class="st0" d="M24.3,44.9c0.7,0,1.3,0.6,1.3,1.3v2.6c0,1-0.5,1.7-1.5,1.7h-0.6v4.5h-0.7c-0.2,0-0.3-0.1-0.3-0.2v-9.8H24.3z
			 M24.6,46.3c0-0.3-0.3-0.5-0.5-0.5h-0.5v3.6h0.5c0.3,0,0.5-0.2,0.5-0.5V46.3z"/>
		<path class="st0" d="M33,44.9c0.3,0,0.4,0.2,0.4,0.4v9.6h-0.7c-0.2,0-0.3-0.1-0.3-0.2v-9.8H33z"/>
		<path class="st0" d="M42.4,44.8c0.7,0,1.2,0.6,1.2,1.3v7.7c0,0.7-0.6,1.2-1.2,1.3h-0.8c-0.7,0-1.3-0.6-1.3-1.3V46
			c0-0.7,0.6-1.3,1.3-1.3H42.4z M42,54.1c0.3,0,0.5-0.2,0.5-0.6v-7.3c0-0.3-0.2-0.6-0.5-0.6h-0.2c-0.3,0-0.5,0.3-0.5,0.6v7.3
			c0,0.3,0.2,0.5,0.5,0.6H42z"/>
		<path class="st0" d="M53.5,45.6c-0.1,0.1-0.2,0.3-0.5,0.3h-0.8c-0.1,0-0.2,0.1-0.3,0.2v8.8h-0.7c-0.2,0-0.3-0.1-0.3-0.2v-8.8h-1.4
			v-0.7c0-0.2,0.1-0.3,0.3-0.3h4.1L53.5,45.6z"/>
		<path class="st0" d="M61.4,54.9v-3.7c0-0.5-0.3-0.6-0.5-0.6h-0.5v4.3h-1v-10h1.9c0.7,0,1.3,0.6,1.3,1.3v3.1c0,0,0,0.8-0.4,0.9
			c0.4,0.2,0.4,0.9,0.4,0.9v3.8H61.4z M60.9,49.6c0.3,0,0.5-0.1,0.5-0.6v-2.7c0-0.4-0.3-0.5-0.5-0.5h-0.5v3.8H60.9z"/>
		<path class="st0" d="M81,54.9v-3.7c0-0.5-0.3-0.6-0.5-0.6h-0.5v4.3h-1v-10h1.9c0.7,0,1.3,0.6,1.3,1.3v3.1c0,0,0,0.8-0.4,0.9
			c0.4,0.2,0.4,0.9,0.4,0.9v3.8H81z M80.5,49.6c0.3,0,0.5-0.1,0.5-0.6v-2.7c0-0.4-0.3-0.5-0.5-0.5h-0.5v3.8H80.5z"/>
		<path class="st0" d="M92.1,54.9h-1.1L90,48l-0.9,6.9H88l1.5-10h0.6c0.4,0,0.5,0.3,0.5,0.5L92.1,54.9z"/>
		<path class="st0" d="M101.6,44.9c-0.1,0.3-0.3,0.7-0.3,0.7c-0.1,0.1-0.2,0.3-0.5,0.3h-1.1c-0.1,0-0.2,0.1-0.2,0.2v3.1h1.8
			l-0.3,0.7c-0.1,0.1-0.2,0.3-0.5,0.3h-0.7c-0.1,0-0.3,0.1-0.3,0.2v4.1c0,0.2-0.1,0.3-0.3,0.3h-0.7v-9.7c0-0.2,0.1-0.3,0.3-0.3
			H101.6z"/>
		<path class="st0" d="M111.1,54.9H110l-0.9-6.9l-0.9,6.9H107l1.5-10h0.6c0.4,0,0.5,0.3,0.5,0.5L111.1,54.9z"/>
		<path class="st0" d="M120.6,53.9c-0.1,0.3-0.3,0.7-0.3,0.7c-0.1,0.1-0.2,0.3-0.6,0.3h-2.5v-10h0.7c0.2,0,0.3,0.1,0.3,0.3v8.7
			H120.6z"/>
		<path class="st0" d="M128.2,47.4v-1.2c0-0.3-0.2-0.6-0.5-0.6s-0.5,0.2-0.5,0.6v1c0,0.6,0.4,1.3,0.4,1.3l1.2,2.3
			c0.5,0.9,0.5,1.6,0.5,1.6v1.3c0,0.7-0.6,1.3-1.3,1.3h-0.6c-0.7,0-1.2-0.6-1.2-1.3v-1c0-0.3,0.2-0.5,0.3-0.6c0.1,0,0.5-0.2,0.8-0.3
			v1.8c0,0.3,0.2,0.5,0.5,0.5s0.5-0.2,0.5-0.6v-1.1c0-0.6-0.4-1.4-0.4-1.4l-1.2-2.3c-0.5-0.9-0.5-1.6-0.5-1.6v-1
			c0-0.7,0.6-1.3,1.3-1.3h0.6c0.7,0,1.2,0.6,1.2,1.3v0.4c0,0.3-0.2,0.5-0.3,0.6C128.9,47.1,128.5,47.3,128.2,47.4z"/>
		<path class="st0" d="M138.5,54.9l-1.4-4.5v4.5h-1v-9.7c0-0.3,0.2-0.4,0.3-0.4h0.7v3.7l1.3-3.6h1.1l-1.6,4.5l1.7,5.5H138.5z"/>
		<path class="st0" d="M146.6,44.9c0.3,0,0.4,0.2,0.4,0.4v9.6h-0.7c-0.2,0-0.3-0.1-0.3-0.2v-9.8H146.6z"/>
	</g>
</g>
</svg>
