<?xml version="1.0" encoding="utf-8"?>
<!-- Generator: Adobe Illustrator 27.9.0, SVG Export Plug-In . SVG Version: 6.00 Build 0)  -->
<svg version="1.1" id="Warstwa_1" xmlns="http://www.w3.org/2000/svg" xmlns:xlink="http://www.w3.org/1999/xlink" x="0px" y="0px"
	 viewBox="0 0 73.9 70" style="enable-background:new 0 0 73.9 70;" xml:space="preserve">
<style type="text/css">
	.st0{fill:#ECF0EC;}
	.st1{fill:#FFFFFF;filter:url(#Adobe_OpacityMaskFilter);}
	.st2{mask:url(#path-10-outside-1_339:55669_00000099651388943458896420000012285066786253445259_);fill:#ECF0EC;}
	.st3{fill:#FFFFFF;filter:url(#Adobe_OpacityMaskFilter_00000156561152225882313150000013440154914532654210_);}
	.st4{mask:url(#path-10-outside-1_339:55669_00000054979936075889968510000014467787371587587741_);fill:#ECF0EC;}
	.st5{fill:#FFFFFF;filter:url(#Adobe_OpacityMaskFilter_00000178188861926147685900000012625772689330647729_);}
	.st6{mask:url(#path-10-outside-1_339:55669_00000054969719097886530460000013980029244576352187_);fill:#ECF0EC;}
	.st7{fill:#FFFFFF;filter:url(#Adobe_OpacityMaskFilter_00000085929039621202824040000007826000139257344404_);}
	.st8{mask:url(#path-10-outside-1_339:55669_00000178180992152837586590000016094212355234682253_);fill:#ECF0EC;}
	.st9{fill:#FFFFFF;filter:url(#Adobe_OpacityMaskFilter_00000073696492827563073200000006904268414254258099_);}
	.st10{mask:url(#path-10-outside-1_339:55669_00000041257820006217942810000010378333196339762352_);fill:#ECF0EC;}
	.st11{fill:#FFFFFF;filter:url(#Adobe_OpacityMaskFilter_00000094608497664114261160000003372838674633405075_);}
	.st12{mask:url(#path-10-outside-1_339:55669_00000040573621576249879810000016601533366907391137_);fill:#ECF0EC;}
	.st13{fill:#FFFFFF;filter:url(#Adobe_OpacityMaskFilter_00000005979013440966425530000008012921532363806344_);}
	.st14{mask:url(#path-10-outside-1_339:55669_00000151535008632269703220000004935159254720457123_);fill:#ECF0EC;}
	.st15{fill:#FFFFFF;filter:url(#Adobe_OpacityMaskFilter_00000124851595802783319310000007667185028204313530_);}
	.st16{mask:url(#path-10-outside-1_339:55669_00000120526621003762177590000010227427899695847870_);fill:#ECF0EC;}
	.st17{fill:#FFFFFF;filter:url(#Adobe_OpacityMaskFilter_00000181804872757024758750000005220980564956423863_);}
	.st18{mask:url(#path-10-outside-1_339:55669_00000134938762592159093990000008155154943761419949_);fill:#ECF0EC;}
	.st19{fill:#FFFFFF;filter:url(#Adobe_OpacityMaskFilter_00000165212742271527921560000011871973787372834452_);}
	.st20{mask:url(#path-10-outside-1_339:55669_00000080184158529572248030000014183963753888544896_);fill:#ECF0EC;}
	.st21{fill:#FFFFFF;filter:url(#Adobe_OpacityMaskFilter_00000126282736935777151570000009042773987450612921_);}
	.st22{mask:url(#path-10-outside-1_339:55669_00000157308535592812109870000009406262635045377684_);fill:#ECF0EC;}
	.st23{fill:#FFFFFF;filter:url(#Adobe_OpacityMaskFilter_00000008142619010653868180000001926881225162014869_);}
	.st24{mask:url(#path-10-outside-1_339:55669_00000108271735842014824690000015943840513121822860_);fill:#ECF0EC;}
	.st25{fill:#FFFFFF;filter:url(#Adobe_OpacityMaskFilter_00000103236655710793947810000012616246874934195086_);}
	.st26{mask:url(#path-10-outside-1_339:55669_00000002367814599035056030000002247858341177150139_);fill:#ECF0EC;}
	.st27{fill:#FFFFFF;filter:url(#Adobe_OpacityMaskFilter_00000077314220612283372240000013700002567025868955_);}
	.st28{mask:url(#path-10-outside-1_339:55669_00000128459139480024480380000015195325364941517474_);fill:#ECF0EC;}
	.st29{fill:#FFFFFF;filter:url(#Adobe_OpacityMaskFilter_00000155842288515421880900000002112800889092875927_);}
	.st30{mask:url(#path-10-outside-1_339:55669_00000153678184447732955690000006302196440870717323_);fill:#ECF0EC;}
	.st31{fill-rule:evenodd;clip-rule:evenodd;fill:#ECF0EC;}
	.st32{clip-path:url(#SVGID_00000160168597727915954200000010161123309726360484_);fill:#ECF0EC;}
</style>
<g>
	<path class="st0" d="M16.8,50.5c-1,0.9-1.3,4.4,3.9,4.4c3.2,0,5.7-1.8,5.7-3.9c0-3.3-5.4-4.1-5.4-6.6c0.5-2.8,2.7-5.1,5.5-5.6
		c1,0,1.3,0.5,1.3,1.5c0.1,1.8-1.2,3.5-3,3.7c-0.8,0,0,0.9,1,0.9c2.3-0.3,3.9-2.3,3.8-4.5c0-1.6-1.2-2.9-2.8-2.9c-0.1,0-0.2,0-0.3,0
		c-3.7,0-8,3.3-8,7c0,3.7,5.4,4.3,5.4,6.6c0,1.5-1.3,2.8-2.8,2.7c-0.1,0-0.1,0-0.2,0c-1.3,0.1-2.4-0.9-2.5-2.2c0,0,0-0.1,0-0.1
		c0-0.4,0.1-0.9,0.4-1.2C18.8,50,17.7,49.6,16.8,50.5z"/>
	<path class="st0" d="M32.1,43c-0.4,2.7-6.2,15-6.2,15.5c0,0.6,1.5,2.1,1.7,1.6c0.1-0.2,1.5-3.5,3-7c0,0,0,0,0-0.1
		c0.4,0.8,1.2,1.3,2.1,1.3c4,0,7.6-6.5,7.6-9.5c0.1-0.9-0.6-1.7-1.5-1.9c-0.1,0-0.2,0-0.3,0c-2,0-4,2.1-5.7,4.5
		c0.4-0.9,0.8-1.9,1-2.9C33.9,43.3,32.2,42.4,32.1,43z M37.9,44.3c0.2,0,0.4,0.2,0.4,0.4v0l0,0c0,1.9-3.5,8-6.3,8
		c-0.3,0-0.6-0.1-0.8-0.3c-0.1-0.1-0.1-0.1-0.2-0.1C33.4,47.8,36.5,44.3,37.9,44.3z"/>
	<path class="st0" d="M67.7,44.8c0-1.4-1.7-2.3-1.8-1.7c-0.4,0.5-1.6,2.1-2.2,3l0,0c-1.2,1.9-2.8,3.5-4.7,4.6
		c0.8-1.4,1.2-2.9,1.3-4.5c0.1-1.7-1.1-3.1-2.8-3.2c-0.1,0-0.2,0-0.3,0c-2.4,0.4-4.4,2.1-5.2,4.4c-1,1.4-2.3,2.5-3.7,3.4
		c0.8-1.4,1.2-2.9,1.3-4.5c0.1-1.7-1.1-3.1-2.8-3.2c-0.1,0-0.2,0-0.3,0c-3.5,0-6.2,5-6.2,8.4c0,2.6,1.6,3.5,3,3.5
		c1.7-0.2,3.3-1.2,4.1-2.7c1.5-0.4,2.8-1.3,3.8-2.5c-0.1,0.6-0.2,1.1-0.2,1.7c0,2.6,1.6,3.5,3,3.5c1.7-0.2,3.3-1.2,4.1-2.7
		c2.4-0.3,5.2-4,5.8-4.8l0,0c0.5-0.7,1-1.4,1.4-2c-1.1,3.1-3.3,7.4-3.3,7.8c0,0.6,1.5,2.1,1.7,1.6c3.8-5.8,7.1-10.1,7.9-10.1
		c0.2,0,0.3,0.2,0.3,0.4c0,1.3-2.7,5.5-2.8,7.6c0,1.8,0.9,2.7,2.2,2.7c0.7,0,0.8-0.6,0.7-0.6c-0.6,0-0.8-0.7-0.8-1.3
		c0-2.6,2.6-5.5,2.6-7.8c0-0.9-0.7-2.5-1.8-2.5c-1.5,0-4.2,4-6.3,7C66.5,48.3,67.2,46.6,67.7,44.8z M43.7,53.6
		c-0.6,0-1.2-0.5-1.2-1.6c0-1,0.3-2,0.8-2.9c0.4,1.3,1.4,2.4,2.7,2.8C45.2,53,44.4,53.6,43.7,53.6z M46.7,50.8L46.7,50.8
		c-1.2-0.2-2.1-1.3-2-2.5c0-1.9,1-3.7,2.4-3.7c0.7,0,1.3,0.5,1.3,1.6C48.2,47.8,47.6,49.4,46.7,50.8z M54.4,53.6
		c-0.6,0-1.2-0.5-1.2-1.6c0-1,0.3-2,0.8-2.9c0.4,1.3,1.4,2.4,2.7,2.8C55.9,53,55.1,53.6,54.4,53.6L54.4,53.6z M57.5,50.8L57.5,50.8
		c-1.2-0.2-2.1-1.3-2-2.5c0-1.9,1-3.7,2.4-3.7c0.7,0,1.3,0.5,1.3,1.6C58.9,47.8,58.3,49.4,57.5,50.8L57.5,50.8z"/>
	<path class="st0" d="M27.2,22.1c-0.4,3.1-4,8.2-4,10s1,2.8,1.9,2.8c1.5,0,4.4-3.7,7.2-7.3c-0.9,1.7-1.6,3.6-1.9,5.6
		c0,1.2,0.7,1.7,2,1.7c1.4,0,4.9-4.2,6.8-6.7c-0.3,1.1-0.4,2.3-0.4,3.5c0,2.4,1,3.2,2.4,3.2c1.9,0,5.8-4.4,7.7-6.8
		c-0.3,1.3-0.5,2.6-0.5,3.9c0,2.7,1.5,3.7,2.9,3.7c1.8,0,1.8-1.4,1.5-1.3c-1,0.1-1.8-0.7-1.8-2.4c0.1-2,0.4-4,1.1-5.8
		c5.2-3.8,9.8-9.8,4.2-9.8c-2,0-4.8,3.8-6.7,8.9c0,0-0.1,0-0.1,0.1c-1.2,1.8-6,7.6-7.5,7.6c-0.4,0-0.6-0.3-0.6-0.9
		c0.1-2,0.4-4,1.1-5.8c5.2-3.8,10.3-10.5,4.8-10.5c-2,0-5.4,4.6-7.3,9.7v0c0,0,0,0,0,0c-1.2,1.8-5.6,7.2-6.8,7.2
		c-0.1,0-0.2-0.2-0.2-0.3c0-1.5,3.5-7.9,3.5-8.5c0-1.3-1.6-2.5-1.7-1.8c-0.5,1.3-7.4,10.9-8.6,10.9c-0.3,0-0.4-0.2-0.4-0.4
		c-0.1-1.2,3.5-7.1,3.5-8.6C29.2,22.5,27.3,21.4,27.2,22.1z M57,18.1c1.5,0-0.8,3.5-4.5,6.6C54.2,20.6,56,18.1,57,18.1L57,18.1z
		 M48.1,17.3c1.5,0-1.4,4.3-5.1,7.4C44.7,20.6,47,17.3,48.1,17.3L48.1,17.3z"/>
	<path class="st0" d="M8.1,41.2c0.1,0,0.2,0,0.3,0c2-0.1,3.9-0.7,5.5-1.9c2.3-1.6,4-3.9,5-6.5c0.2-0.4,0.3-0.9,0.5-1.3
		c0.5-1.5,1.1-2.9,1.7-4.4c0.2-0.5,0.4-0.9,0.7-1.4c0.1-0.2,0.2-0.5,0.3-0.7c0-0.1,0.3-0.7,0.3-0.7c0.9-0.1,1.9-0.1,2.8,0.2
		c0.2,0.1,0.3-0.9-0.3-1.1c-0.6-0.2-1.3-0.2-2-0.2c1.2-1.8,2-3.9,2.5-6c0-0.1,0-0.1,0-0.2c1.3,0.2,2.7,0.2,4.1,0.1
		C30,17.1,30,16,29.8,16c-1.7,0.2-3.4,0.2-5.1,0c-0.5-0.5-1.1-0.7-1.1-0.5L23.5,16c-5.8,0-12.1,1.8-12.1,7.3
		c-0.3,1.8,0.9,3.5,2.7,3.9c0.5,0.1,1.4,0,0.9-0.4c-0.8-0.8-1.2-1.9-1.1-3c0-4.9,4.9-6.7,9.3-6.7c-0.8,2.1-1.7,4.2-2.8,6.2
		c-1,0-1.9-0.1-2.9-0.3c-0.2,0-0.6,1.2-0.1,1.6c0.7,0.3,1.5,0.3,2.3,0.1c-0.2,0-0.9,1.8-1,2.1c-0.4,0.7-0.7,1.4-0.9,2.1
		c-0.7,2.9-2.2,5.6-4.3,7.7c-0.9,0.9-2,1.5-3.3,1.9c-0.7,0.2-1.4,0.3-2.1,0.4c-1.8-0.1-3.5-1-4.5-2.6c-2.1-3-1.9-7.7,0.4-13.4l0.4-1
		C11.7,5.4,31-2.3,47.6,4.9c11.6,5,19.3,16.3,19.8,29c0,0.6,0.5,1.1,1.1,1.1c0.6,0,1.1-0.5,1.1-1.1v0l0,0C69,14.5,52.8-0.6,33.5,0
		C19.9,0.5,7.9,8.7,2.5,21.1l-0.4,1c-3.4,8.2-2,13-0.2,15.6C3.3,39.8,5.6,41.1,8.1,41.2z"/>
	<path class="st0" d="M10,48c-1-1.5-4.5-4.2-7.9-2.2c-3.5,2.1-1.7,7.4-1,8.5c2.3,3.5,5.9,5.8,9.9,6.6c13.1,12,33.1,12.2,46.5,0.6
		c0.5-0.4,0.5-1.1,0.1-1.6c-0.4-0.5-1.1-0.5-1.6-0.1c-12.5,10.8-31,10.6-43.3-0.3C13.2,55.4,12.2,51.4,10,48z M7.6,58.5
		c-0.4-0.1-0.8-0.3-1.1-0.5c-0.7-0.4-1.4-0.9-2-1.5c-0.2-0.1-0.3-0.3-0.5-0.4c1.2,1,2.6,1.7,4.1,2c0.7,0.2,1.3,0,1.9-0.3
		c0.5-0.4,0.8-1,0.9-1.6c0.1-0.6,0.1-1.3,0.1-1.9c0-0.3-0.1-0.6-0.1-1c-0.1-0.3-0.2-0.6-0.2-0.9c0.6,1.1,0.8,2.4,0.8,3.6
		c0,0.9-0.4,1.8-1.1,2.4c-0.4,0.3-1,0.4-1.5,0.4C8.5,58.7,8,58.6,7.6,58.5z"/>
</g>
</svg>
