<?xml version="1.0" encoding="utf-8"?>
<!-- Generator: Adobe Illustrator 27.9.0, SVG Export Plug-In . SVG Version: 6.00 Build 0)  -->
<svg version="1.1" id="Warstwa_1" xmlns="http://www.w3.org/2000/svg" xmlns:xlink="http://www.w3.org/1999/xlink" x="0px" y="0px"
	 viewBox="0 0 113.6 70" style="enable-background:new 0 0 113.6 70;" xml:space="preserve">
<style type="text/css">
	.st0{fill:#ECF0EC;}
	.st1{fill:#FFFFFF;filter:url(#Adobe_OpacityMaskFilter);}
	.st2{mask:url(#path-10-outside-1_339:55669_00000099651388943458896420000012285066786253445259_);fill:#ECF0EC;}
	.st3{fill:#FFFFFF;filter:url(#Adobe_OpacityMaskFilter_00000116202391723724684170000008166802161285632150_);}
	.st4{mask:url(#path-10-outside-1_339:55669_00000054979936075889968510000014467787371587587741_);fill:#ECF0EC;}
	.st5{fill:#FFFFFF;filter:url(#Adobe_OpacityMaskFilter_00000130629182752639504870000017327408924315559859_);}
	.st6{mask:url(#path-10-outside-1_339:55669_00000054969719097886530460000013980029244576352187_);fill:#ECF0EC;}
	.st7{fill:#FFFFFF;filter:url(#Adobe_OpacityMaskFilter_00000118396846506101264120000001851391403664111758_);}
	.st8{mask:url(#path-10-outside-1_339:55669_00000178180992152837586590000016094212355234682253_);fill:#ECF0EC;}
	.st9{fill:#FFFFFF;filter:url(#Adobe_OpacityMaskFilter_00000034072165124095431960000015192291229755198392_);}
	.st10{mask:url(#path-10-outside-1_339:55669_00000041257820006217942810000010378333196339762352_);fill:#ECF0EC;}
	.st11{fill:#FFFFFF;filter:url(#Adobe_OpacityMaskFilter_00000041993553713732676380000017213572871387612844_);}
	.st12{mask:url(#path-10-outside-1_339:55669_00000040573621576249879810000016601533366907391137_);fill:#ECF0EC;}
	.st13{fill:#FFFFFF;filter:url(#Adobe_OpacityMaskFilter_00000003820546794315672050000003309162140546583943_);}
	.st14{mask:url(#path-10-outside-1_339:55669_00000151535008632269703220000004935159254720457123_);fill:#ECF0EC;}
	.st15{fill:#FFFFFF;filter:url(#Adobe_OpacityMaskFilter_00000098919132100068944270000012322537589660533143_);}
	.st16{mask:url(#path-10-outside-1_339:55669_00000120526621003762177590000010227427899695847870_);fill:#ECF0EC;}
	.st17{fill:#FFFFFF;filter:url(#Adobe_OpacityMaskFilter_00000113318878330224659140000009610511420643988141_);}
	.st18{mask:url(#path-10-outside-1_339:55669_00000134938762592159093990000008155154943761419949_);fill:#ECF0EC;}
	.st19{fill:#FFFFFF;filter:url(#Adobe_OpacityMaskFilter_00000114771658707033851430000008610803520446897073_);}
	.st20{mask:url(#path-10-outside-1_339:55669_00000080184158529572248030000014183963753888544896_);fill:#ECF0EC;}
	.st21{fill:#FFFFFF;filter:url(#Adobe_OpacityMaskFilter_00000041978568132876592720000002638175404297643195_);}
	.st22{mask:url(#path-10-outside-1_339:55669_00000157308535592812109870000009406262635045377684_);fill:#ECF0EC;}
	.st23{fill:#FFFFFF;filter:url(#Adobe_OpacityMaskFilter_00000119840102867747732900000014937993414770491013_);}
	.st24{mask:url(#path-10-outside-1_339:55669_00000108271735842014824690000015943840513121822860_);fill:#ECF0EC;}
	.st25{fill:#FFFFFF;filter:url(#Adobe_OpacityMaskFilter_00000034794827553367846250000009768848590054901169_);}
	.st26{mask:url(#path-10-outside-1_339:55669_00000002367814599035056030000002247858341177150139_);fill:#ECF0EC;}
	.st27{fill:#FFFFFF;filter:url(#Adobe_OpacityMaskFilter_00000176012210561409581340000010360197989417142701_);}
	.st28{mask:url(#path-10-outside-1_339:55669_00000128459139480024480380000015195325364941517474_);fill:#ECF0EC;}
	.st29{fill:#FFFFFF;filter:url(#Adobe_OpacityMaskFilter_00000069386726478849514970000017292826254853557401_);}
	.st30{mask:url(#path-10-outside-1_339:55669_00000153678184447732955690000006302196440870717323_);fill:#ECF0EC;}
	.st31{fill-rule:evenodd;clip-rule:evenodd;fill:#ECF0EC;}
	.st32{clip-path:url(#SVGID_00000050660928948241523010000011378147827676534190_);fill:#ECF0EC;}
</style>
<g>
	<g>
		<path class="st0" d="M98.7,38.1c0-0.5,0.1-0.9,0.1-1.4c0-7.1-5.8-12.8-13.1-12.8c-7.2,0-13.1,5.7-13.1,12.8
			c0,7.1,5.8,12.8,13.1,12.8c5.5,0,10.2-3.3,12.1-8l-5.6-1c-1.2,2.3-3.6,3.8-6.3,3.8c-3.6,0-6.5-2.7-7.1-6.2L98.7,38.1L98.7,38.1z
			 M85.9,29.3c3.1,0,5.7,2,6.7,4.8H79.1C80.2,31.2,82.8,29.3,85.9,29.3z"/>
		<rect x="62.5" y="24.5" class="st0" width="6.7" height="24.5"/>
		<path class="st0" d="M65.8,14.5c-2.1,0-3.7,1.7-3.7,3.7c0,2,1.7,3.7,3.7,3.7c2,0,3.7-1.7,3.7-3.7C69.5,16.2,67.8,14.5,65.8,14.5"
			/>
		<polygon class="st0" points="21.7,16.6 21.7,29.8 7.3,29.8 7.3,16.6 0,16.6 0,49 7.3,49 7.3,35.8 21.7,35.8 21.7,49 29,49 
			29,16.6 		"/>
		<path class="st0" d="M51.7,24.5v1.3c-1.9-1.2-4.2-1.8-6.6-1.8c-7.1,0-12.8,5.7-12.8,12.8c0,7,5.7,12.8,12.8,12.8
			c2.4,0,4.6-0.6,6.5-1.8V49h6.5V24.5H51.7z M45.4,44.1c-4.1,0-7.5-3.3-7.5-7.4c0-4.1,3.3-7.4,7.5-7.4c4.1,0,7.5,3.3,7.5,7.4
			C52.9,40.8,49.6,44.1,45.4,44.1z"/>
		<path class="st0" d="M112.5,22.2c-6.1,1.1-10.8,6.4-10.9,12.9v14h6.4l0-14.2c0-3.3,2.4-5.9,5.6-6.3L112.5,22.2z"/>
	</g>
</g>
</svg>
