<?xml version="1.0" encoding="utf-8"?>
<!-- Generator: Adobe Illustrator 27.9.0, SVG Export Plug-In . SVG Version: 6.00 Build 0)  -->
<svg version="1.1" id="Warstwa_1" xmlns="http://www.w3.org/2000/svg" xmlns:xlink="http://www.w3.org/1999/xlink" x="0px" y="0px"
	 viewBox="0 0 207.9 70" style="enable-background:new 0 0 207.9 70;" xml:space="preserve">
<style type="text/css">
	.st0{fill:#ECF0EC;}
	.st1{fill:#FFFFFF;filter:url(#Adobe_OpacityMaskFilter);}
	.st2{mask:url(#path-10-outside-1_339:55669_00000099651388943458896420000012285066786253445259_);fill:#ECF0EC;}
	.st3{fill:#FFFFFF;filter:url(#Adobe_OpacityMaskFilter_00000180344084617770393220000000096894012561403319_);}
	.st4{mask:url(#path-10-outside-1_339:55669_00000054979936075889968510000014467787371587587741_);fill:#ECF0EC;}
	.st5{fill:#FFFFFF;filter:url(#Adobe_OpacityMaskFilter_00000080194680971730837850000001006474130876536753_);}
	.st6{mask:url(#path-10-outside-1_339:55669_00000054969719097886530460000013980029244576352187_);fill:#ECF0EC;}
	.st7{fill:#FFFFFF;filter:url(#Adobe_OpacityMaskFilter_00000019673355365044353160000006513817412934202552_);}
	.st8{mask:url(#path-10-outside-1_339:55669_00000178180992152837586590000016094212355234682253_);fill:#ECF0EC;}
	.st9{fill:#FFFFFF;filter:url(#Adobe_OpacityMaskFilter_00000168111603581105250150000016923076484024834731_);}
	.st10{mask:url(#path-10-outside-1_339:55669_00000041257820006217942810000010378333196339762352_);fill:#ECF0EC;}
	.st11{fill:#FFFFFF;filter:url(#Adobe_OpacityMaskFilter_00000012459899118901399040000011425682037147953826_);}
	.st12{mask:url(#path-10-outside-1_339:55669_00000040573621576249879810000016601533366907391137_);fill:#ECF0EC;}
	.st13{fill:#FFFFFF;filter:url(#Adobe_OpacityMaskFilter_00000163041076302549000540000010315820935046890421_);}
	.st14{mask:url(#path-10-outside-1_339:55669_00000151535008632269703220000004935159254720457123_);fill:#ECF0EC;}
	.st15{fill:#FFFFFF;filter:url(#Adobe_OpacityMaskFilter_00000062872010991946888620000005018903380408034192_);}
	.st16{mask:url(#path-10-outside-1_339:55669_00000120526621003762177590000010227427899695847870_);fill:#ECF0EC;}
	.st17{fill:#FFFFFF;filter:url(#Adobe_OpacityMaskFilter_00000124153803335704905170000009638844488444050590_);}
	.st18{mask:url(#path-10-outside-1_339:55669_00000134938762592159093990000008155154943761419949_);fill:#ECF0EC;}
	.st19{fill:#FFFFFF;filter:url(#Adobe_OpacityMaskFilter_00000119078002365369422670000014079483097967419289_);}
	.st20{mask:url(#path-10-outside-1_339:55669_00000080184158529572248030000014183963753888544896_);fill:#ECF0EC;}
	.st21{fill:#FFFFFF;filter:url(#Adobe_OpacityMaskFilter_00000001646540688409200990000007888813368139866766_);}
	.st22{mask:url(#path-10-outside-1_339:55669_00000157308535592812109870000009406262635045377684_);fill:#ECF0EC;}
	.st23{fill:#FFFFFF;filter:url(#Adobe_OpacityMaskFilter_00000057146006657722814210000017152721686355179655_);}
	.st24{mask:url(#path-10-outside-1_339:55669_00000108271735842014824690000015943840513121822860_);fill:#ECF0EC;}
	.st25{fill:#FFFFFF;filter:url(#Adobe_OpacityMaskFilter_00000117672172461106560230000012537043928253032576_);}
	.st26{mask:url(#path-10-outside-1_339:55669_00000002367814599035056030000002247858341177150139_);fill:#ECF0EC;}
	.st27{fill:#FFFFFF;filter:url(#Adobe_OpacityMaskFilter_00000051376421808945338600000010337956561733983639_);}
	.st28{mask:url(#path-10-outside-1_339:55669_00000128459139480024480380000015195325364941517474_);fill:#ECF0EC;}
	.st29{fill:#FFFFFF;filter:url(#Adobe_OpacityMaskFilter_00000000198164614554469020000015722288679461000073_);}
	.st30{mask:url(#path-10-outside-1_339:55669_00000153678184447732955690000006302196440870717323_);fill:#ECF0EC;}
	.st31{fill-rule:evenodd;clip-rule:evenodd;fill:#ECF0EC;}
	.st32{clip-path:url(#SVGID_00000093867501792540517910000000993781924488238476_);fill:#ECF0EC;}
</style>
<g>
	<path class="st0" d="M58,21.6c-8.5,0-14.9,6-14.9,13.9c0,8,5.8,13.2,14.9,13.2c8.8,0,14.6-5.4,14.6-13.5
		C72.7,27.4,66.5,21.6,58,21.6z M58,23.2c7.5,0,10.8,6.1,10.8,12.1c0,3.6-1.3,6.9-3.7,9.1c-2,1.8-4.4,2.8-7.1,2.8
		c-6.2,0-10.9-5.1-10.9-11.7C47.1,29.6,50.5,23.2,58,23.2z"/>
	<path class="st0" d="M81.6,46.9l-0.1-25H78v0.2c0.1,3.2,0,16.3,0,22.7c0,1.7,0,3,0,3.4v0.2h16.3l0.7-1.8l-0.4,0.1
		C92.8,47,83.2,47,81.6,46.9z"/>
	<path class="st0" d="M105.2,22.1v-0.2h-3.5v0.2c0.1,3.1,0,15.2,0,21.8c0,2.2,0,3.8,0,4.3v0.2h3.6v-0.2c0-3.7,0-8.4,0-13
		C105.2,30.5,105.2,25.8,105.2,22.1z"/>
	<path class="st0" d="M117.3,46.9l-0.1-11.1c4-0.1,7,0,9.2,0.2l0.2,0l0-2l-0.3,0c-2.1,0.2-6.4,0.2-8.7,0.2h-0.5V23.4
		c1.4,0,9.3,0,11,0.2l0.4,0l-0.7-1.7h-14.2v26.6H130l0.7-1.8l-0.4,0.1C128.4,47,118.8,47,117.3,46.9z"/>
	<path class="st0" d="M147.3,36.2c3.3-1.1,5.2-3.6,5.2-7.1c0-3.5-2.9-7.1-9.5-7.1h-6.2v0.2c0.1,3.2,0,16.3,0,22.7c0,1.7,0,3,0,3.4
		v0.2h3.6V23.6l0.1-0.1c3-0.2,5.3,0.4,6.9,1.8c1.2,1.1,1.9,2.5,1.9,4.1c0,3.9-3.2,6.6-7.7,6.6h-0.1l-0.7,0.7l0.4,0.1
		c0.8,0.1,1.8,0.1,2.5,0c0.1,0,0.2,0,0.3,0c1.8,3,4.9,7.9,6.5,10.5l0.8,1.3h4.1l-0.5-0.8C152,43.7,149,39.2,147.3,36.2z"/>
	<path class="st0" d="M207.6,44.1c-4.1,1.6-16.8,2-19.6,2.1c0,0,2.2-1.9,2.7-2.3c11-9.2,15.1-14.9,15.1-21c0-5.8-4.8-10.4-11-10.4
		c-4.5,0-7.9,1.8-10.4,5.6l-0.1,0.1l0.1,0.1c0.1,0.1,0.2,0.2,0.2,0.3l0.2,0.3l0.2-0.2c2.2-2.2,5.1-3.6,7.6-3.6c4,0,8.3,3.2,8.3,7.9
		c0,6-4.3,12.9-13.8,22.3l-3,2.9v0.5h22.9l0.8-4.8L207.6,44.1z"/>
	<path class="st0" d="M171.5,24.4c-0.4-1-1-2.7-1-2.7l-0.1-0.1h-0.9l-11.7,26.9h1.9l3.7-8.5h7l0.7-2l-0.4,0.1
		c-0.8,0.1-3.1,0.2-6.7,0.2l4.9-11.7c0.5,1.2,2.8,6.5,4.6,10.9l0.7,1.6l0.3,0.6c1.4,3.3,2.6,6.4,3.4,8.6l0.1,0.1h4l-0.1-0.3
		C180,44,174.9,32.5,171.5,24.4z"/>
	<path class="st0" d="M39.4,48.5c-0.7-5.7-2.5-23.1-3.6-33.5l-0.1-1H32L20,42.4c0,0,0.3,0,0.3,0c-0.4-1-0.9-2.1-1.5-3.3
		c-2.2-5-5.5-12.5-9.2-21.4c-0.6-1.4-1.4-3.4-1.4-3.5L8.2,14H3.9l0.1,2.6L0,48.4l0,0.3h2.1l3.6-29.8l12.8,30.5l0.1,0.1h0.7L32,19.3
		c0.3,3.1,2,20.3,2.9,29.2l0,0.2h4.5L39.4,48.5z"/>
</g>
</svg>
