<?xml version="1.0" encoding="utf-8"?>
<!-- Generator: Adobe Illustrator 27.9.0, SVG Export Plug-In . SVG Version: 6.00 Build 0)  -->
<svg version="1.1" id="Warstwa_1" xmlns="http://www.w3.org/2000/svg" xmlns:xlink="http://www.w3.org/1999/xlink" x="0px" y="0px"
	 viewBox="0 0 103.4 70" style="enable-background:new 0 0 103.4 70;" xml:space="preserve">
<style type="text/css">
	.st0{fill:#ECF0EC;}
	.st1{fill:#FFFFFF;filter:url(#Adobe_OpacityMaskFilter);}
	.st2{mask:url(#path-10-outside-1_339:55669_00000099651388943458896420000012285066786253445259_);fill:#ECF0EC;}
	.st3{fill:#FFFFFF;filter:url(#Adobe_OpacityMaskFilter_00000125595005806345719920000013552414245156660891_);}
	.st4{mask:url(#path-10-outside-1_339:55669_00000054979936075889968510000014467787371587587741_);fill:#ECF0EC;}
	.st5{fill:#FFFFFF;filter:url(#Adobe_OpacityMaskFilter_00000093142333133446542810000001131477848576927153_);}
	.st6{mask:url(#path-10-outside-1_339:55669_00000054969719097886530460000013980029244576352187_);fill:#ECF0EC;}
	.st7{fill:#FFFFFF;filter:url(#Adobe_OpacityMaskFilter_00000021816904665588037820000017457258871834937742_);}
	.st8{mask:url(#path-10-outside-1_339:55669_00000178180992152837586590000016094212355234682253_);fill:#ECF0EC;}
	.st9{fill:#FFFFFF;filter:url(#Adobe_OpacityMaskFilter_00000071538484649661160920000002580951171671996086_);}
	.st10{mask:url(#path-10-outside-1_339:55669_00000041257820006217942810000010378333196339762352_);fill:#ECF0EC;}
	.st11{fill:#FFFFFF;filter:url(#Adobe_OpacityMaskFilter_00000136384226875862217910000003054687220565944728_);}
	.st12{mask:url(#path-10-outside-1_339:55669_00000040573621576249879810000016601533366907391137_);fill:#ECF0EC;}
	.st13{fill:#FFFFFF;filter:url(#Adobe_OpacityMaskFilter_00000050635560222230995040000010235156116745461170_);}
	.st14{mask:url(#path-10-outside-1_339:55669_00000151535008632269703220000004935159254720457123_);fill:#ECF0EC;}
	.st15{fill:#FFFFFF;filter:url(#Adobe_OpacityMaskFilter_00000115487896661354269490000007074456147870731674_);}
	.st16{mask:url(#path-10-outside-1_339:55669_00000120526621003762177590000010227427899695847870_);fill:#ECF0EC;}
	.st17{fill:#FFFFFF;filter:url(#Adobe_OpacityMaskFilter_00000178192492121565146180000013795433972105352838_);}
	.st18{mask:url(#path-10-outside-1_339:55669_00000134938762592159093990000008155154943761419949_);fill:#ECF0EC;}
	.st19{fill:#FFFFFF;filter:url(#Adobe_OpacityMaskFilter_00000022532808350134346530000001972548730353247106_);}
	.st20{mask:url(#path-10-outside-1_339:55669_00000080184158529572248030000014183963753888544896_);fill:#ECF0EC;}
	.st21{fill:#FFFFFF;filter:url(#Adobe_OpacityMaskFilter_00000139267924221944508610000004338311859201869742_);}
	.st22{mask:url(#path-10-outside-1_339:55669_00000157308535592812109870000009406262635045377684_);fill:#ECF0EC;}
	.st23{fill:#FFFFFF;filter:url(#Adobe_OpacityMaskFilter_00000030468131917971595700000000127293451375396006_);}
	.st24{mask:url(#path-10-outside-1_339:55669_00000108271735842014824690000015943840513121822860_);fill:#ECF0EC;}
	.st25{fill:#FFFFFF;filter:url(#Adobe_OpacityMaskFilter_00000024689292455789873920000002417434275567800212_);}
	.st26{mask:url(#path-10-outside-1_339:55669_00000002367814599035056030000002247858341177150139_);fill:#ECF0EC;}
	.st27{fill:#FFFFFF;filter:url(#Adobe_OpacityMaskFilter_00000026144868758316219750000014721789007921544881_);}
	.st28{mask:url(#path-10-outside-1_339:55669_00000128459139480024480380000015195325364941517474_);fill:#ECF0EC;}
	.st29{fill:#FFFFFF;filter:url(#Adobe_OpacityMaskFilter_00000013188855566968088350000013500277426929095816_);}
	.st30{mask:url(#path-10-outside-1_339:55669_00000153678184447732955690000006302196440870717323_);fill:#ECF0EC;}
	.st31{fill-rule:evenodd;clip-rule:evenodd;fill:#ECF0EC;}
	.st32{clip-path:url(#SVGID_00000098922650548669715190000003843683338018112149_);fill:#ECF0EC;}
</style>
<g>
	<path class="st0" d="M32.2,41.2l-1.7,1.7c-0.2,0.2-0.5,0.2-0.7,0L28,41.2c-0.2-0.2-0.2-0.5,0-0.7l1.7-1.7c0.2-0.2,0.5-0.2,0.7,0
		l1.7,1.7C32.4,40.7,32.4,41,32.2,41.2 M28.7,47.5l1.1-1.1c0.1-0.1,0.4-0.1,0.5,0l1.1,1.1c0.1,0.1,0.1,0.4,0,0.5l-1.1,1.1
		c-0.1,0.1-0.4,0.1-0.5,0L28.7,48C28.6,47.9,28.6,47.6,28.7,47.5 M23.9,41.2l-1.7,1.7c-0.2,0.2-0.5,0.2-0.7,0l-1.7-1.7
		c-0.2-0.2-0.2-0.5,0-0.7l1.7-1.7c0.2-0.2,0.5-0.2,0.7,0l1.7,1.7C24.1,40.7,24.1,41,23.9,41.2 M20.5,47.5l1.1-1.1
		c0.1-0.1,0.4-0.1,0.5,0l1.1,1.1c0.1,0.1,0.1,0.4,0,0.5l-1.1,1.1c-0.1,0.1-0.4,0.1-0.5,0L20.5,48C20.3,47.9,20.3,47.6,20.5,47.5
		 M15.7,41.2L14,42.9c-0.2,0.2-0.5,0.2-0.7,0l-1.7-1.7c-0.2-0.2-0.2-0.5,0-0.7l1.7-1.7c0.2-0.2,0.5-0.2,0.7,0l1.7,1.7
		C15.9,40.7,15.9,41,15.7,41.2 M12.2,47.5l1.1-1.1c0.1-0.1,0.4-0.1,0.5,0l1.1,1.1c0.1,0.1,0.1,0.4,0,0.5l-1.1,1.1
		c-0.1,0.1-0.4,0.1-0.5,0L12.2,48C12.1,47.9,12.1,47.6,12.2,47.5 M7.4,41.2l-1.7,1.7c-0.2,0.2-0.5,0.2-0.7,0l-1.7-1.7
		c-0.2-0.2-0.2-0.5,0-0.7L5,38.7c0.2-0.2,0.5-0.2,0.7,0l1.7,1.7C7.6,40.7,7.6,41,7.4,41.2 M3.8,47.5l1.3-1.1c0.1-0.1,0.4-0.1,0.5,0
		l1.1,1.1c0.1,0.1,0.1,0.4,0,0.5l-1.1,1.1c-0.1,0.1-0.4,0.1-0.5,0L3.9,48C3.8,47.9,3.7,47.6,3.8,47.5 M35,53.4V17.3
		c0-0.4-0.4-0.8-0.8-0.8c-0.2,0-0.4,0.1-0.6,0.2L30,20.4c-0.4,0.4-0.4,1.1,0,1.5L30,22c0,0.1,0.1,0.1,0.1,0.2l2.1,2.1v0l1.1,1.1
		c0.3,0.3,0.3,0.8,0,1.2l-1.6,1.6l0,0L31,28.8c-0.3,0.3-0.3,0.8,0,1.1l0.6,0.6l0.5,0.5l1.1,1.1c0.3,0.3,0.3,0.8,0,1.1l-2.6,2.6
		c-0.3,0.3-0.8,0.3-1.1,0l-2.6-2.6c-0.3-0.3-0.3-0.8,0-1.1v0l1.7-1.7l0.6-0.6c0.3-0.3,0.3-0.8,0-1.1l-2.6-2.6
		c-0.3-0.3-0.8-0.3-1.1,0l-2.6,2.6c-0.3,0.3-0.3,0.8,0,1.1l0.6,0.6l0.4,0.4l1.2,1.2c0.3,0.3,0.3,0.8,0,1.1l-2.6,2.6
		c-0.3,0.3-0.8,0.3-1.1,0l-2.6-2.6c-0.3-0.3-0.3-0.8,0-1.1l0.6-0.6l1.7-1.7c0.3-0.3,0.3-0.8,0-1.1l-1.4-1.4v0l-0.8-0.8
		c-0.3-0.3-0.3-0.8,0-1.2l0.8-0.8v0l2.6-2.6c0.4-0.4,0.4-1.1,0-1.5l-3.6-3.6c-0.4-0.4-1.1-0.4-1.5,0l-3.6,3.6
		c-0.4,0.4-0.4,1.1,0,1.5l2.6,2.6v0l0.8,0.8c0.3,0.3,0.3,0.8,0,1.2l-0.8,0.8v0l-1.4,1.4c-0.3,0.3-0.3,0.8,0,1.1l1.7,1.7l0.6,0.6
		c0.3,0.3,0.3,0.8,0,1.1l-2.6,2.6c-0.3,0.3-0.8,0.3-1.1,0l-2.6-2.6c-0.3-0.3-0.3-0.8,0-1.1l1.2-1.2l0.4-0.4l0.6-0.6
		c0.3-0.3,0.3-0.8,0-1.1L10,26.2c-0.3-0.3-0.8-0.3-1.1,0l-2.6,2.6c-0.3,0.3-0.3,0.8,0,1.1l0.6,0.6l1.7,1.7v0c0.3,0.3,0.3,0.8,0,1.1
		l-2.6,2.6c-0.3,0.3-0.8,0.3-1.1,0l-2.6-2.6c-0.3-0.3-0.3-0.8,0-1.1l1.1-1.1l0.5-0.5l0.6-0.6c0.3-0.3,0.3-0.8,0-1.1l-0.7-0.7l0,0
		l-1.6-1.6c-0.3-0.3-0.3-0.8,0-1.2l1.1-1.1v0l2.1-2.1c0.1,0,0.1-0.1,0.1-0.2l0-0.1c0.4-0.4,0.4-1.1,0-1.5l-3.6-3.6
		c-0.2-0.2-0.4-0.2-0.6-0.2c-0.4,0-0.8,0.3-0.8,0.8v36.1H35z"/>
	<path class="st0" d="M99.5,21.6l0.1,0.2c0.2,0,0.7,0.1,1.7,0.1c0.9,0,1,0,1.1-0.1c0.2-0.1,0.4-0.4,0.5-0.9l0,0c-0.3,0-0.7,0-1.2,0
		c-0.6,0-0.8,0-0.9-0.1v-1.1h1.1c0.3,0,0.5-0.1,0.7-0.9h-1.8v-1h0.8c0.4,0,0.6,0,0.7-0.1c0.1-0.1,0.3-0.3,0.3-0.9h-2
		c-0.5,0-0.9,0.1-1.4,0.1c0,0.4,0,0.6,0,1V21.6z M91,21.9c0.4,0,0.9-0.1,1.1-0.1c0.1,0,0.2-0.2,0.3-0.3c0.2-0.8,0.7-2.2,0.8-2.7
		c0.2,0.9,0.6,2.4,0.8,3.1c0.4,0,1,0,1.1-0.1c0.1-0.1,0.2-0.2,0.2-0.3c0.3-0.9,0.8-2.1,1.1-3c0.3-0.7,0.4-1.1,0.4-1.2
		c0.1-0.2,0-0.3-0.2-0.4c-0.3,0-0.8-0.1-0.9-0.1c-0.1,0.5-0.4,1.3-0.9,3.2c-0.2-1-0.7-2.4-0.8-2.9c-0.1-0.2-0.1-0.2-0.3-0.2
		c-0.3,0-0.7,0.1-1.1,0.2c0,0,0,0.2,0,0.3c-0.3,1-0.7,2.4-0.8,2.7c-0.2-1-0.6-2.2-0.7-2.8c-0.1-0.4-0.2-0.4-0.4-0.4
		c-0.4,0-1,0.1-1.3,0.1c0.1,0.2,0.3,0.9,0.5,1.4C90.3,19.8,90.8,21.5,91,21.9 M84.5,17.8c0.8,0,1.2,0.7,1.2,1.7c0,1-0.4,1.6-1.1,1.6
		c-0.7,0-1.2-0.6-1.2-1.7C83.3,18.2,83.9,17.8,84.5,17.8L84.5,17.8z M84.5,16.9c-1.6,0-2.7,1-2.7,2.6c0,1.3,0.8,2.5,2.7,2.5
		c1.8,0,2.7-1.2,2.7-2.6C87.2,17.8,86,16.9,84.5,16.9L84.5,16.9z M75.9,17.8c0.2,0,0.4,0,0.5,0c0.7,0,1.4,0.4,1.4,1.5
		c0,1.5-1.1,1.7-1.5,1.7c-0.1,0-0.3,0-0.4,0V17.8z M74.5,21.7c0.4,0.1,1,0.1,1.5,0.1c1.7,0,3.4-0.5,3.4-2.5c0-1-0.4-2.4-2.9-2.4
		c-0.8,0-1.7,0.1-1.9,0.2c0,0.2,0,0.3,0,0.9V21.7z M68.9,17.8c0.8,0,1.2,0.7,1.2,1.7c0,1-0.4,1.6-1.1,1.6c-0.7,0-1.2-0.6-1.2-1.7
		C67.8,18.2,68.4,17.8,68.9,17.8L68.9,17.8z M69,16.9c-1.6,0-2.7,1-2.7,2.6c0,1.3,0.8,2.5,2.7,2.5c1.8,0,2.7-1.2,2.7-2.6
		C71.7,17.8,70.5,16.9,69,16.9L69,16.9z M61.2,17.8c0.1,0,0.2,0,0.4,0c0.4,0,0.7,0.3,0.7,0.7c0,0.4-0.2,0.5-0.3,0.6
		c-0.1,0.1-0.4,0.1-0.8,0.1V17.8z M61.2,19.9c0.3,0,0.5,0.1,0.7,0.4c0.2,0.4,0.5,1,0.6,1.1c0.2,0.3,0.4,0.4,0.8,0.4
		c0.4,0,0.7,0,0.9-0.1v0c-0.2-0.2-0.4-0.6-0.6-1c-0.3-0.5-0.5-1-0.8-1.2c0.4-0.2,0.9-0.5,0.9-1.2c0-0.9-0.6-1.5-2.1-1.5
		c-0.9,0-1.8,0.2-1.8,0.2c0,0.2,0,0.4,0,0.8v2.6c0,0.6,0,1.1,0,1.4c0.2,0,1,0,1.3,0c0.1,0,0.2-0.1,0.2-0.2V19.9z M53.8,19.9
		c0.3-0.8,0.5-1.3,0.6-1.7c0.1,0.3,0.3,0.7,0.6,1.7H53.8z M55.3,20.8c0,0.1,0.1,0.4,0.3,0.8c0.1,0.2,0.1,0.2,0.3,0.2
		c0.2,0,1.1,0,1.2-0.1v0c-0.2-0.3-0.4-0.8-0.7-1.7c-0.2-0.6-0.7-2-1.2-3c0,0-0.1-0.1-0.2-0.1c-0.2,0-0.8,0-1.4,0.1l0,0.2
		c-0.4,1-1.5,3.6-1.9,4.5l0,0c0.2,0.1,0.7,0.1,1.1,0.1c0.2,0,0.2,0,0.3-0.2c0.1-0.2,0.3-0.7,0.3-0.9H55.3z M44.7,20.4
		c0,0.7,0,1.1,0,1.4c0.4,0,0.8,0,1,0c0.1,0,0.2-0.1,0.2-0.2v-1.9c0-0.6,0-1-0.1-1.6c0.4,0.9,0.5,1.2,1,2c0.5,0.9,0.7,1.4,0.9,1.6
		c0.1,0.1,0.2,0.2,0.3,0.2c0.3,0,1.1-0.1,1.2-0.1v-3.4c0-0.7,0-1.1,0-1.4c-0.2,0-0.7,0-0.9,0c-0.1,0-0.2,0-0.2,0.2v1.4
		c0,0.6,0,1,0.1,1.8c-0.1-0.4-0.4-0.9-0.6-1.3c-0.3-0.6-0.8-1.6-1-1.9c-0.1-0.1-0.1-0.1-0.3-0.1c-0.1,0-1.3,0-1.6,0.1v0l0.1,0.2
		V20.4z"/>
	<path class="st0" d="M100.7,32.9c-0.3,0.8-0.8,2.1-1,2.6l-0.9-2.6c-0.1-0.2-0.1-0.2-0.3-0.2c-0.5,0-1,0.1-1.4,0.1l0,0.2
		c-0.2,1.7-0.6,3.6-0.7,4.5c0.1,0.1,0.9,0.1,1.1,0.1c0.1,0,0.1,0,0.2-0.2c0.1-1.1,0.3-2.5,0.4-3.5c0.2,0.8,0.8,2.8,1,3.5
		c0.3,0,0.9-0.1,1.1-0.2c0.5-1.5,0.9-2.6,1-3.3l0.1,1.2c0.1,1.3,0.1,1.7,0.1,2.2c0,0.1,0,0.2,0.2,0.2c0.2,0,1.2-0.1,1.3-0.1
		c0-0.3-0.1-0.9-0.2-1.7l-0.3-2.8c0-0.2-0.1-0.2-0.2-0.2c-0.3,0-1.2,0.1-1.4,0.1V32.9z M88.8,33.1c0-0.4,0-0.4-0.2-0.4
		c-0.5,0-1.1,0-1.3,0.1c0,0.2,0,0.5,0,1v1.6c0,1.7,0.8,2.4,2.3,2.4c1.1,0,2.4-0.3,2.4-2.6v-1c0-0.6,0-1.1,0-1.4c-0.2,0-0.8,0-1.1,0
		c-0.1,0-0.2,0-0.2,0.2v2.4c0,1.1-0.4,1.5-1,1.5c-0.6,0-1-0.4-1-1.4V33.1z M80.2,33.5c0.1,0,0.2,0,0.4,0c0.4,0,0.7,0.3,0.7,0.7
		c0,0.4-0.2,0.5-0.3,0.6c-0.1,0.1-0.4,0.1-0.8,0.1V33.5z M80.2,35.7c0.3,0,0.5,0.1,0.7,0.4c0.2,0.4,0.5,1,0.6,1.1
		c0.2,0.3,0.4,0.4,0.8,0.4c0.4,0,0.7,0,0.9-0.1v0c-0.2-0.2-0.4-0.6-0.6-1c-0.3-0.5-0.5-1-0.8-1.2c0.4-0.2,0.9-0.5,0.9-1.2
		c0-0.9-0.6-1.5-2.1-1.5c-0.9,0-1.8,0.2-1.8,0.2c0,0.2,0,0.4,0,0.8v2.6c0,0.6,0,1.1,0,1.4c0.2,0,1,0,1.3,0c0.1,0,0.2-0.1,0.2-0.2
		V35.7z M71.5,37.4c0,0.1,0.1,0.1,0.2,0.1c0.6,0,1,0,1.3-0.1c0-0.2,0-0.4,0-1v-3H74c0.3-0.1,0.5-0.2,0.6-0.9h-3.2
		c-0.8,0-1.1,0-1.2,0c-0.1,0.1-0.3,0.4-0.3,0.7c0,0.1,0,0.2,0.2,0.2h1.4V37.4z M61.1,36.1c0,0.7,0,1.1,0,1.4c0.4,0,0.8,0,1,0
		c0.1,0,0.2-0.1,0.2-0.2v-1.9c0-0.6,0-1-0.1-1.6c0.4,0.9,0.5,1.2,1,2c0.5,0.9,0.7,1.4,0.9,1.6c0.1,0.1,0.2,0.2,0.3,0.2
		c0.3,0,1.1-0.1,1.2-0.1v-3.4c0-0.7,0-1.1,0-1.4c-0.2,0-0.7,0-0.9,0c-0.1,0-0.2,0-0.2,0.2v1.4c0,0.6,0,1,0.1,1.8
		c-0.1-0.4-0.4-0.9-0.6-1.4c-0.3-0.6-0.8-1.6-1-1.9c-0.1-0.1-0.1-0.1-0.3-0.1c-0.1,0-1.3,0-1.6,0.1v0l0.1,0.2V36.1z M53.2,37.3
		l0.1,0.2c0.2,0,0.7,0.1,1.7,0.1c0.9,0,1,0,1.1-0.1c0.2-0.1,0.4-0.4,0.5-0.9l0,0c-0.3,0-0.7,0-1.2,0c-0.6,0-0.8,0-0.9-0.1v-1.1h1.1
		c0.3,0,0.5-0.1,0.7-0.9h-1.8v-1h0.8c0.4,0,0.6,0,0.7-0.1c0.1-0.1,0.3-0.3,0.3-0.9h-2c-0.5,0-0.9,0.1-1.4,0.1c0,0.4,0,0.6,0,1V37.3z
		 M48.9,36.5c-0.3,0.1-0.7,0.2-1.2,0.2c-1.1,0-1.8-0.6-1.8-1.6c0-1,0.6-1.5,1.5-1.5c0.4,0,0.8,0.1,1,0.2c0.1,0,0.2,0,0.2,0
		c0.1-0.1,0.3-0.5,0.3-0.7c-0.2-0.2-0.8-0.4-1.6-0.4c-1.6,0-3,0.9-3,2.6c0,1.5,1,2.5,3,2.5c0.5,0,1-0.1,1.2-0.2
		C48.7,37.3,48.9,36.9,48.9,36.5L48.9,36.5z"/>
	<path class="st0" d="M99.9,53.3c0,0.1,0.1,0.2,0.2,0.2c0.7,0,0.9,0,1.3-0.1c0-0.2,0-0.4,0-0.9v-1c0-0.1,0.1-0.2,0.1-0.3
		c0.1-0.2,1.3-2,1.5-2.3c0.1-0.1,0.1-0.2,0-0.3c-0.2-0.1-0.5-0.1-1-0.1c-0.2,0.3-0.6,1.2-1,1.9c-0.3-0.6-0.5-1-0.8-1.5
		c-0.2-0.3-0.3-0.4-0.4-0.4c-0.3,0-1,0.1-1.4,0.1v0c0.2,0.3,0.7,1,1.3,1.9c0.2,0.3,0.3,0.5,0.3,0.6c0.1,0.1,0.1,0.2,0.1,0.3V53.3z
		 M91.3,49.3c0.1,0,0.2,0,0.4,0c0.4,0,0.7,0.3,0.7,0.7c0,0.4-0.2,0.5-0.3,0.6c-0.1,0.1-0.4,0.1-0.8,0.1V49.3z M91.3,51.5
		c0.3,0,0.5,0.1,0.7,0.4c0.2,0.4,0.5,1,0.6,1.1c0.2,0.3,0.4,0.4,0.8,0.4c0.4,0,0.7,0,0.9-0.1v0c-0.2-0.2-0.4-0.6-0.6-1
		c-0.3-0.5-0.5-1-0.8-1.2c0.4-0.2,0.9-0.5,0.9-1.2c0-0.9-0.6-1.5-2.1-1.5c-0.9,0-1.8,0.2-1.8,0.2c0,0.2,0,0.4,0,0.8V52
		c0,0.6,0,1.1,0,1.4c0.2,0,1,0,1.3,0c0.1,0,0.2-0.1,0.2-0.2V51.5z M81.5,48.9c0-0.4,0-0.4-0.2-0.4c-0.5,0-1.1,0-1.3,0.1
		c0,0.2,0,0.5,0,1v1.6c0,1.7,0.8,2.4,2.3,2.4c1.1,0,2.4-0.3,2.4-2.6v-1c0-0.6,0-1.1,0-1.4c-0.2,0-0.8,0-1.1,0c-0.1,0-0.2,0-0.2,0.2
		v2.4c0,1.1-0.4,1.5-1,1.5c-0.6,0-1-0.4-1-1.4V48.9z M72.3,53.3c0,0.1,0.1,0.1,0.2,0.1c0.6,0,1,0,1.3-0.1c0-0.2,0-0.4,0-1v-3h1.1
		c0.3-0.1,0.5-0.2,0.6-0.9h-3.2c-0.8,0-1.1,0-1.2,0c-0.1,0.1-0.3,0.4-0.3,0.7c0,0.1,0,0.2,0.2,0.2h1.4V53.3z M63.7,53.2l0.1,0.2
		c0.2,0,0.7,0.1,1.7,0.1c0.7,0,0.9,0,1-0.1c0.1-0.1,0.4-0.4,0.5-0.9l0,0c-0.3,0-0.6,0-1.1,0c-0.5,0-0.7,0-0.9-0.1l0-3.5
		c0-0.4,0-0.4-0.2-0.4c-0.5,0-1.1,0-1.3,0.1c0,0.2,0,0.5,0,1V53.2z M55.3,48.9c0-0.4,0-0.4-0.2-0.4c-0.5,0-1.1,0-1.3,0.1
		c0,0.2,0,0.5,0,1v1.6c0,1.7,0.8,2.4,2.3,2.4c1.1,0,2.4-0.3,2.4-2.6v-1c0-0.6,0-1.1,0-1.4c-0.2,0-0.8,0-1.1,0c-0.1,0-0.2,0-0.2,0.2
		v2.4c0,1.1-0.4,1.5-1,1.5c-0.6,0-1-0.4-1-1.4V48.9z M44.7,53.3c0,0.1,0.1,0.1,0.2,0.1c0.2,0,1.1,0,1.2-0.1c0-0.2,0-0.4,0-0.9v-1.3
		c0.2,0.4,0.9,1.4,1.3,2c0.2,0.3,0.4,0.4,0.6,0.4c0.7,0,1.2,0,1.3-0.1v-0.1c-0.4-0.5-1.3-1.7-1.8-2.5c0.5-0.7,1.3-1.6,1.5-1.9
		c0.1-0.2,0.1-0.3-0.2-0.3c-0.2,0-0.7-0.1-0.9-0.1c-0.4,0.6-1.1,1.4-1.8,2.4v-2c0-0.4,0-0.5-0.1-0.5c-0.2,0-1.1,0.1-1.3,0.1
		c0,0.2,0,0.5,0,1V53.3z"/>
</g>
</svg>
