<?xml version="1.0" encoding="utf-8"?>
<!-- Generator: Adobe Illustrator 27.9.0, SVG Export Plug-In . SVG Version: 6.00 Build 0)  -->
<svg version="1.1" id="Warstwa_1" xmlns="http://www.w3.org/2000/svg" xmlns:xlink="http://www.w3.org/1999/xlink" x="0px" y="0px"
	 viewBox="0 0 217.8 70" style="enable-background:new 0 0 217.8 70;" xml:space="preserve">
<style type="text/css">
	.st0{fill:#ECF0EC;}
	.st1{fill:#FFFFFF;filter:url(#Adobe_OpacityMaskFilter);}
	.st2{mask:url(#path-10-outside-1_339:55669_00000099651388943458896420000012285066786253445259_);fill:#ECF0EC;}
	.st3{fill:#FFFFFF;filter:url(#Adobe_OpacityMaskFilter_00000183930273430137066740000000214623598107435923_);}
	.st4{mask:url(#path-10-outside-1_339:55669_00000054979936075889968510000014467787371587587741_);fill:#ECF0EC;}
	.st5{fill:#FFFFFF;filter:url(#Adobe_OpacityMaskFilter_00000147929402707577381400000013792394445492722849_);}
	.st6{mask:url(#path-10-outside-1_339:55669_00000054969719097886530460000013980029244576352187_);fill:#ECF0EC;}
	.st7{fill:#FFFFFF;filter:url(#Adobe_OpacityMaskFilter_00000179621846183998259820000007202250281894416825_);}
	.st8{mask:url(#path-10-outside-1_339:55669_00000178180992152837586590000016094212355234682253_);fill:#ECF0EC;}
	.st9{fill:#FFFFFF;filter:url(#Adobe_OpacityMaskFilter_00000096056406217981752220000015779225257381112454_);}
	.st10{mask:url(#path-10-outside-1_339:55669_00000041257820006217942810000010378333196339762352_);fill:#ECF0EC;}
	.st11{fill:#FFFFFF;filter:url(#Adobe_OpacityMaskFilter_00000129890483981730098000000006120111105191931561_);}
	.st12{mask:url(#path-10-outside-1_339:55669_00000040573621576249879810000016601533366907391137_);fill:#ECF0EC;}
	.st13{fill:#FFFFFF;filter:url(#Adobe_OpacityMaskFilter_00000095316091317839269270000011520502365831486123_);}
	.st14{mask:url(#path-10-outside-1_339:55669_00000151535008632269703220000004935159254720457123_);fill:#ECF0EC;}
	.st15{fill:#FFFFFF;filter:url(#Adobe_OpacityMaskFilter_00000075154701056914722250000005441899104356390575_);}
	.st16{mask:url(#path-10-outside-1_339:55669_00000120526621003762177590000010227427899695847870_);fill:#ECF0EC;}
	.st17{fill:#FFFFFF;filter:url(#Adobe_OpacityMaskFilter_00000068665703549730826800000011582695903607754394_);}
	.st18{mask:url(#path-10-outside-1_339:55669_00000134938762592159093990000008155154943761419949_);fill:#ECF0EC;}
	.st19{fill:#FFFFFF;filter:url(#Adobe_OpacityMaskFilter_00000013165159005070604400000016065499155773457305_);}
	.st20{mask:url(#path-10-outside-1_339:55669_00000080184158529572248030000014183963753888544896_);fill:#ECF0EC;}
	.st21{fill:#FFFFFF;filter:url(#Adobe_OpacityMaskFilter_00000100368783640845422450000002931223720093506985_);}
	.st22{mask:url(#path-10-outside-1_339:55669_00000157308535592812109870000009406262635045377684_);fill:#ECF0EC;}
	.st23{fill:#FFFFFF;filter:url(#Adobe_OpacityMaskFilter_00000158013111327990899380000010673217295366286231_);}
	.st24{mask:url(#path-10-outside-1_339:55669_00000108271735842014824690000015943840513121822860_);fill:#ECF0EC;}
	.st25{fill:#FFFFFF;filter:url(#Adobe_OpacityMaskFilter_00000016044344793225428810000014002364104600081833_);}
	.st26{mask:url(#path-10-outside-1_339:55669_00000002367814599035056030000002247858341177150139_);fill:#ECF0EC;}
	.st27{fill:#FFFFFF;filter:url(#Adobe_OpacityMaskFilter_00000060028182558751515120000004585999784036538247_);}
	.st28{mask:url(#path-10-outside-1_339:55669_00000128459139480024480380000015195325364941517474_);fill:#ECF0EC;}
	.st29{fill:#FFFFFF;filter:url(#Adobe_OpacityMaskFilter_00000064339073559045947470000002527908562272794539_);}
	.st30{mask:url(#path-10-outside-1_339:55669_00000153678184447732955690000006302196440870717323_);fill:#ECF0EC;}
	.st31{fill-rule:evenodd;clip-rule:evenodd;fill:#ECF0EC;}
	.st32{clip-path:url(#SVGID_00000134965786433545541480000016875801368354908290_);fill:#ECF0EC;}
</style>
<g>
	<g>
		<path class="st0" d="M78.9,20.9v2.7h-1.3v-7.3h2.8c0.8,0,1.5,0.2,2,0.6c0.5,0.4,0.7,1,0.7,1.7c0,0.7-0.2,1.3-0.7,1.7
			c-0.5,0.4-1.1,0.6-2,0.6H78.9z M78.9,19.9h1.5c0.5,0,0.8-0.1,1-0.3c0.2-0.2,0.4-0.5,0.4-0.9c0-0.4-0.1-0.7-0.4-1
			c-0.2-0.2-0.6-0.4-1-0.4h-1.6V19.9z"/>
		<path class="st0" d="M86.9,19.3c-0.2,0-0.3,0-0.5,0c-0.6,0-0.9,0.2-1.1,0.6v3.7h-1.2v-5.5h1.2l0,0.6c0.3-0.5,0.7-0.7,1.2-0.7
			c0.2,0,0.3,0,0.4,0.1L86.9,19.3z"/>
		<path class="st0" d="M89,22.7h2.9v1h-4.4v-0.8l2.8-3.7h-2.7v-1h4.3V19L89,22.7z"/>
		<path class="st0" d="M94.8,21.9l1.1-3.7h1.3l-2.2,6.3c-0.3,0.9-0.9,1.4-1.7,1.4c-0.2,0-0.4,0-0.6-0.1v-1l0.2,0
			c0.3,0,0.5-0.1,0.7-0.2s0.3-0.3,0.4-0.6l0.2-0.5l-1.9-5.4h1.3L94.8,21.9z"/>
		<path class="st0" d="M100.1,22.8c0.3,0,0.6-0.1,0.8-0.3c0.2-0.2,0.3-0.4,0.3-0.7h1.2c0,0.3-0.1,0.7-0.3,1
			c-0.2,0.3-0.5,0.5-0.8,0.7c-0.3,0.2-0.7,0.3-1.1,0.3c-0.8,0-1.4-0.2-1.8-0.7c-0.4-0.5-0.7-1.2-0.7-2v-0.1c0-0.8,0.2-1.5,0.7-2
			c0.4-0.5,1-0.7,1.8-0.7c0.6,0,1.2,0.2,1.6,0.6c0.4,0.4,0.6,0.9,0.6,1.5h-1.2c0-0.3-0.1-0.6-0.3-0.8c-0.2-0.2-0.5-0.3-0.8-0.3
			c-0.4,0-0.7,0.1-0.9,0.4c-0.2,0.3-0.3,0.7-0.3,1.3V21c0,0.6,0.1,1,0.3,1.3C99.4,22.6,99.7,22.8,100.1,22.8z"/>
		<path class="st0" d="M104.5,18.8c0.4-0.5,0.9-0.7,1.5-0.7c1.2,0,1.8,0.7,1.8,2v3.6h-1.2v-3.5c0-0.4-0.1-0.6-0.2-0.8
			c-0.2-0.2-0.4-0.2-0.7-0.2c-0.5,0-0.9,0.2-1.1,0.7v3.9h-1.2v-7.7h1.2V18.8z"/>
		<path class="st0" d="M108.8,20.9c0-0.5,0.1-1,0.3-1.4c0.2-0.4,0.5-0.8,0.9-1c0.4-0.2,0.8-0.3,1.3-0.3c0.7,0,1.3,0.2,1.8,0.7
			c0.5,0.5,0.7,1.1,0.7,1.9l0,0.3c0,0.5-0.1,1-0.3,1.4c-0.2,0.4-0.5,0.8-0.9,1c-0.4,0.2-0.8,0.3-1.3,0.3c-0.8,0-1.4-0.3-1.8-0.8
			C109,22.5,108.8,21.8,108.8,20.9L108.8,20.9z M110,21c0,0.6,0.1,1,0.3,1.3c0.2,0.3,0.6,0.5,1,0.5c0.4,0,0.7-0.2,1-0.5
			c0.2-0.3,0.3-0.8,0.3-1.4c0-0.6-0.1-1-0.4-1.3c-0.2-0.3-0.6-0.5-1-0.5c-0.4,0-0.7,0.2-1,0.5C110.1,19.9,110,20.4,110,21z"/>
		<path class="st0" d="M114.7,20.9c0-0.8,0.2-1.5,0.6-2c0.4-0.5,0.9-0.8,1.6-0.8c0.6,0,1,0.2,1.4,0.6v-2.8h1.2v7.7h-1.1l-0.1-0.6
			c-0.4,0.4-0.9,0.7-1.5,0.7c-0.6,0-1.2-0.3-1.6-0.8C114.9,22.5,114.7,21.8,114.7,20.9z M115.9,21c0,0.6,0.1,1,0.3,1.3
			c0.2,0.3,0.5,0.5,0.9,0.5c0.5,0,0.9-0.2,1.1-0.7v-2.3c-0.2-0.4-0.6-0.7-1.1-0.7c-0.4,0-0.7,0.2-0.9,0.5
			C116,19.9,115.9,20.4,115.9,21z"/>
		<path class="st0" d="M121.9,18.2l0,0.6c0.4-0.5,0.9-0.7,1.6-0.7c1.1,0,1.7,0.7,1.7,2v3.6H124v-3.5c0-0.3-0.1-0.6-0.2-0.8
			c-0.1-0.2-0.4-0.2-0.7-0.2c-0.5,0-0.9,0.2-1.1,0.7v3.9h-1.2v-5.5H121.9z"/>
		<path class="st0" d="M126.5,16.8c0-0.2,0.1-0.3,0.2-0.5c0.1-0.1,0.3-0.2,0.5-0.2s0.4,0.1,0.5,0.2c0.1,0.1,0.2,0.3,0.2,0.5
			c0,0.2-0.1,0.3-0.2,0.5c-0.1,0.1-0.3,0.2-0.5,0.2s-0.4-0.1-0.5-0.2C126.5,17.1,126.5,17,126.5,16.8z M127.8,23.7h-1.2v-5.5h1.2
			V23.7z"/>
		<path class="st0" d="M132.4,23.7c-0.1-0.1-0.1-0.3-0.1-0.5c-0.4,0.4-0.9,0.6-1.4,0.6c-0.5,0-1-0.2-1.3-0.5
			c-0.3-0.3-0.5-0.7-0.5-1.2c0-0.6,0.2-1,0.6-1.3c0.4-0.3,1.1-0.5,1.9-0.5h0.8V20c0-0.3-0.1-0.5-0.2-0.7c-0.2-0.2-0.4-0.3-0.7-0.3
			c-0.3,0-0.5,0.1-0.7,0.2c-0.2,0.1-0.3,0.3-0.3,0.5H129c0-0.3,0.1-0.6,0.3-0.8c0.2-0.3,0.5-0.5,0.8-0.6c0.3-0.1,0.7-0.2,1.1-0.2
			c0.6,0,1.1,0.2,1.5,0.5c0.4,0.3,0.6,0.8,0.6,1.4v2.5c0,0.5,0.1,0.9,0.2,1.2v0.1H132.4z M131,22.8c0.2,0,0.5-0.1,0.7-0.2
			c0.2-0.1,0.4-0.3,0.5-0.5v-1h-0.7c-0.5,0-0.8,0.1-1,0.2c-0.2,0.2-0.3,0.4-0.3,0.7c0,0.2,0.1,0.4,0.2,0.6
			C130.5,22.7,130.8,22.8,131,22.8z"/>
		<path class="st0" d="M141.2,21.8c0-0.3-0.1-0.6-0.3-0.7c-0.2-0.2-0.6-0.4-1.2-0.5c-0.6-0.2-1.1-0.4-1.4-0.6c-0.7-0.4-1-1-1-1.6
			c0-0.6,0.2-1.1,0.7-1.5c0.5-0.4,1.1-0.6,1.9-0.6c0.5,0,1,0.1,1.4,0.3c0.4,0.2,0.7,0.5,0.9,0.8c0.2,0.3,0.3,0.7,0.3,1.2h-1.3
			c0-0.4-0.1-0.7-0.4-0.9c-0.2-0.2-0.6-0.3-1-0.3c-0.4,0-0.7,0.1-1,0.3c-0.2,0.2-0.3,0.4-0.3,0.7c0,0.3,0.1,0.5,0.4,0.7
			c0.2,0.2,0.7,0.4,1.2,0.5c0.6,0.2,1,0.4,1.4,0.6c0.3,0.2,0.6,0.5,0.8,0.7c0.2,0.3,0.2,0.6,0.2,1c0,0.6-0.2,1.1-0.7,1.5
			c-0.5,0.4-1.1,0.5-1.9,0.5c-0.5,0-1-0.1-1.5-0.3c-0.4-0.2-0.8-0.5-1-0.8c-0.2-0.3-0.4-0.7-0.4-1.2h1.3c0,0.4,0.1,0.7,0.4,1
			c0.3,0.2,0.7,0.3,1.2,0.3c0.4,0,0.8-0.1,1-0.3C141.1,22.3,141.2,22.1,141.2,21.8z"/>
		<path class="st0" d="M145,16.9v1.3h1v0.9h-1v3c0,0.2,0,0.4,0.1,0.5c0.1,0.1,0.2,0.1,0.4,0.1c0.1,0,0.3,0,0.4,0v0.9
			c-0.3,0.1-0.5,0.1-0.8,0.1c-0.9,0-1.4-0.5-1.4-1.6v-3.1h-0.9v-0.9h0.9v-1.3H145z"/>
		<path class="st0" d="M146.6,20.9c0-0.5,0.1-1,0.3-1.4s0.5-0.8,0.9-1c0.4-0.2,0.8-0.3,1.3-0.3c0.7,0,1.3,0.2,1.8,0.7
			c0.5,0.5,0.7,1.1,0.7,1.9l0,0.3c0,0.5-0.1,1-0.3,1.4c-0.2,0.4-0.5,0.8-0.9,1s-0.8,0.3-1.3,0.3c-0.8,0-1.4-0.3-1.8-0.8
			C146.8,22.5,146.6,21.8,146.6,20.9L146.6,20.9z M147.8,21c0,0.6,0.1,1,0.3,1.3c0.2,0.3,0.6,0.5,1,0.5c0.4,0,0.7-0.2,1-0.5
			c0.2-0.3,0.3-0.8,0.3-1.4c0-0.6-0.1-1-0.4-1.3c-0.2-0.3-0.6-0.5-1-0.5c-0.4,0-0.7,0.2-1,0.5C147.9,19.9,147.8,20.4,147.8,21z"/>
		<path class="st0" d="M153.8,18.2l0,0.6c0.4-0.4,0.9-0.7,1.6-0.7c0.7,0,1.2,0.3,1.5,0.8c0.4-0.6,1-0.8,1.7-0.8
			c0.6,0,1.1,0.2,1.3,0.5c0.3,0.3,0.4,0.8,0.5,1.5v3.6h-1.2v-3.6c0-0.3-0.1-0.6-0.2-0.8c-0.2-0.2-0.4-0.2-0.8-0.2
			c-0.3,0-0.5,0.1-0.7,0.2c-0.2,0.1-0.3,0.3-0.4,0.6l0,3.7h-1.2v-3.6c0-0.6-0.3-1-1-1c-0.5,0-0.8,0.2-1,0.6v4h-1.2v-5.5H153.8z"/>
		<path class="st0" d="M164.9,23.7c-0.1-0.1-0.1-0.3-0.1-0.5c-0.4,0.4-0.9,0.6-1.4,0.6c-0.5,0-1-0.2-1.3-0.5s-0.5-0.7-0.5-1.2
			c0-0.6,0.2-1,0.6-1.3c0.4-0.3,1.1-0.5,1.9-0.5h0.8V20c0-0.3-0.1-0.5-0.2-0.7c-0.2-0.2-0.4-0.3-0.7-0.3c-0.3,0-0.5,0.1-0.7,0.2
			c-0.2,0.1-0.3,0.3-0.3,0.5h-1.2c0-0.3,0.1-0.6,0.3-0.8c0.2-0.3,0.5-0.5,0.8-0.6c0.3-0.1,0.7-0.2,1.1-0.2c0.6,0,1.1,0.2,1.5,0.5
			c0.4,0.3,0.6,0.8,0.6,1.4v2.5c0,0.5,0.1,0.9,0.2,1.2v0.1H164.9z M163.6,22.8c0.2,0,0.5-0.1,0.7-0.2c0.2-0.1,0.4-0.3,0.5-0.5v-1
			h-0.7c-0.5,0-0.8,0.1-1,0.2c-0.2,0.2-0.3,0.4-0.3,0.7c0,0.2,0.1,0.4,0.2,0.6C163.1,22.7,163.3,22.8,163.6,22.8z"/>
		<path class="st0" d="M168.8,16.9v1.3h1v0.9h-1v3c0,0.2,0,0.4,0.1,0.5c0.1,0.1,0.2,0.1,0.4,0.1c0.1,0,0.3,0,0.4,0v0.9
			c-0.3,0.1-0.5,0.1-0.8,0.1c-0.9,0-1.4-0.5-1.4-1.6v-3.1h-0.9v-0.9h0.9v-1.3H168.8z"/>
		<path class="st0" d="M170.3,20.9c0-0.5,0.1-1,0.3-1.4c0.2-0.4,0.5-0.8,0.9-1c0.4-0.2,0.8-0.3,1.3-0.3c0.7,0,1.3,0.2,1.8,0.7
			c0.5,0.5,0.7,1.1,0.7,1.9l0,0.3c0,0.5-0.1,1-0.3,1.4c-0.2,0.4-0.5,0.8-0.9,1c-0.4,0.2-0.8,0.3-1.3,0.3c-0.8,0-1.4-0.3-1.8-0.8
			C170.5,22.5,170.3,21.8,170.3,20.9L170.3,20.9z M171.5,21c0,0.6,0.1,1,0.3,1.3c0.2,0.3,0.6,0.5,1,0.5s0.7-0.2,1-0.5
			c0.2-0.3,0.3-0.8,0.3-1.4c0-0.6-0.1-1-0.4-1.3c-0.2-0.3-0.6-0.5-1-0.5c-0.4,0-0.7,0.2-1,0.5C171.7,19.9,171.5,20.4,171.5,21z"/>
		<path class="st0" d="M177.7,23.7h-1.2v-7.7h1.2V23.7z"/>
		<path class="st0" d="M178.8,20.9c0-0.5,0.1-1,0.3-1.4s0.5-0.8,0.9-1c0.4-0.2,0.8-0.3,1.3-0.3c0.7,0,1.3,0.2,1.8,0.7
			c0.5,0.5,0.7,1.1,0.7,1.9l0,0.3c0,0.5-0.1,1-0.3,1.4c-0.2,0.4-0.5,0.8-0.9,1s-0.8,0.3-1.3,0.3c-0.8,0-1.4-0.3-1.8-0.8
			C179.1,22.5,178.8,21.8,178.8,20.9L178.8,20.9z M180.1,21c0,0.6,0.1,1,0.3,1.3c0.2,0.3,0.6,0.5,1,0.5c0.4,0,0.7-0.2,1-0.5
			c0.2-0.3,0.3-0.8,0.3-1.4c0-0.6-0.1-1-0.4-1.3c-0.2-0.3-0.6-0.5-1-0.5c-0.4,0-0.7,0.2-1,0.5C180.2,19.9,180.1,20.4,180.1,21z"/>
		<path class="st0" d="M184.7,20.9c0-0.8,0.2-1.5,0.6-2c0.4-0.5,0.9-0.8,1.6-0.8c0.6,0,1.1,0.2,1.5,0.7l0.1-0.5h1.1v5.3
			c0,0.7-0.2,1.3-0.7,1.7c-0.4,0.4-1,0.6-1.8,0.6c-0.4,0-0.8-0.1-1.2-0.2c-0.4-0.2-0.7-0.4-0.9-0.7l0.6-0.7c0.4,0.4,0.8,0.7,1.4,0.7
			c0.4,0,0.7-0.1,1-0.3c0.2-0.2,0.4-0.5,0.4-1v-0.4c-0.4,0.4-0.8,0.6-1.4,0.6c-0.6,0-1.2-0.3-1.6-0.8
			C184.9,22.5,184.7,21.8,184.7,20.9z M185.9,21c0,0.5,0.1,1,0.3,1.3c0.2,0.3,0.5,0.5,0.9,0.5c0.5,0,0.9-0.2,1.1-0.6v-2.4
			c-0.2-0.4-0.6-0.6-1.1-0.6c-0.4,0-0.7,0.2-0.9,0.5S185.9,20.4,185.9,21z"/>
		<path class="st0" d="M190.8,16.8c0-0.2,0.1-0.3,0.2-0.5c0.1-0.1,0.3-0.2,0.5-0.2c0.2,0,0.4,0.1,0.5,0.2c0.1,0.1,0.2,0.3,0.2,0.5
			c0,0.2-0.1,0.3-0.2,0.5c-0.1,0.1-0.3,0.2-0.5,0.2c-0.2,0-0.4-0.1-0.5-0.2C190.9,17.1,190.8,17,190.8,16.8z M192.1,23.7h-1.2v-5.5
			h1.2V23.7z"/>
		<path class="st0" d="M195.7,22.8c0.3,0,0.6-0.1,0.8-0.3c0.2-0.2,0.3-0.4,0.3-0.7h1.2c0,0.3-0.1,0.7-0.3,1
			c-0.2,0.3-0.5,0.5-0.8,0.7c-0.3,0.2-0.7,0.3-1.1,0.3c-0.8,0-1.4-0.2-1.8-0.7c-0.4-0.5-0.7-1.2-0.7-2v-0.1c0-0.8,0.2-1.5,0.7-2
			c0.4-0.5,1-0.7,1.8-0.7c0.6,0,1.2,0.2,1.6,0.6c0.4,0.4,0.6,0.9,0.6,1.5h-1.2c0-0.3-0.1-0.6-0.3-0.8c-0.2-0.2-0.5-0.3-0.8-0.3
			c-0.4,0-0.7,0.1-0.9,0.4c-0.2,0.3-0.3,0.7-0.3,1.3V21c0,0.6,0.1,1,0.3,1.3C195,22.6,195.3,22.8,195.7,22.8z"/>
		<path class="st0" d="M200.1,22.7h2.9v1h-4.4v-0.8l2.8-3.7h-2.7v-1h4.3V19L200.1,22.7z"/>
		<path class="st0" d="M205.2,18.2l0,0.6c0.4-0.5,0.9-0.7,1.6-0.7c1.1,0,1.7,0.7,1.7,2v3.6h-1.2v-3.5c0-0.3-0.1-0.6-0.2-0.8
			c-0.1-0.2-0.4-0.2-0.7-0.2c-0.5,0-0.9,0.2-1.1,0.7v3.9H204v-5.5H205.2z"/>
		<path class="st0" d="M213,23.7c-0.1-0.1-0.1-0.3-0.1-0.5c-0.4,0.4-0.9,0.6-1.4,0.6c-0.5,0-1-0.2-1.3-0.5s-0.5-0.7-0.5-1.2
			c0-0.6,0.2-1,0.6-1.3c0.4-0.3,1-0.5,1.9-0.5h0.8V20c0-0.3-0.1-0.5-0.2-0.7c-0.2-0.2-0.4-0.3-0.7-0.3c-0.3,0-0.5,0.1-0.7,0.2
			c-0.2,0.1-0.3,0.3-0.3,0.5h-1.2c0-0.3,0.1-0.6,0.3-0.8c0.2-0.3,0.5-0.5,0.8-0.6c0.3-0.1,0.7-0.2,1.1-0.2c0.6,0,1.1,0.2,1.5,0.5
			c0.4,0.3,0.6,0.8,0.6,1.4v2.5c0,0.5,0.1,0.9,0.2,1.2v0.1H213z M211.7,22.8c0.2,0,0.5-0.1,0.7-0.2c0.2-0.1,0.4-0.3,0.5-0.5v-1h-0.7
			c-0.5,0-0.8,0.1-1,0.2c-0.2,0.2-0.3,0.4-0.3,0.7c0,0.2,0.1,0.4,0.2,0.6C211.2,22.7,211.4,22.8,211.7,22.8z"/>
	</g>
	<g>
		<path class="st0" d="M81.3,43.2V49h-4.1V32h6.8c1.3,0,2.5,0.2,3.5,0.7c1,0.5,1.8,1.2,2.3,2c0.5,0.9,0.8,1.9,0.8,3
			c0,1.7-0.6,3-1.8,4c-1.2,1-2.8,1.5-4.9,1.5H81.3z M81.3,40h2.7c0.8,0,1.4-0.2,1.8-0.6c0.4-0.4,0.6-1,0.6-1.7
			c0-0.8-0.2-1.4-0.6-1.9c-0.4-0.5-1-0.7-1.8-0.7h-2.7V40z"/>
		<path class="st0" d="M100.2,39.9l-1.3-0.1c-1.2,0-2,0.4-2.4,1.2v8h-3.9V36.3h3.7l0.1,1.6c0.7-1.2,1.6-1.9,2.8-1.9
			c0.4,0,0.8,0,1.1,0.1L100.2,39.9z"/>
		<path class="st0" d="M106.3,45.9h5.8v3h-10.7v-2.2l5.6-7.4h-5.4v-3h10.4v2.1L106.3,45.9z"/>
		<path class="st0" d="M119,43.5l2.1-7.1h4.2l-5.2,14.8l-0.2,0.5c-0.7,1.6-2,2.5-3.9,2.5c-0.5,0-1.1-0.1-1.6-0.2V51h0.5
			c0.6,0,1-0.1,1.3-0.2c0.3-0.2,0.5-0.4,0.6-0.9l0.3-0.8l-4.4-12.8h4.2L119,43.5z"/>
		<path class="st0" d="M134,39.9l-1.3-0.1c-1.2,0-2,0.4-2.4,1.2v8h-3.9V36.3h3.7l0.1,1.6c0.7-1.2,1.6-1.9,2.8-1.9
			c0.4,0,0.8,0,1.1,0.1L134,39.9z"/>
		<path class="st0" d="M134.5,42.5c0-1.3,0.2-2.4,0.7-3.4c0.5-1,1.2-1.7,2.1-2.3c0.9-0.5,2-0.8,3.2-0.8c1.9,0,3.4,0.6,4.5,1.8
			c1.1,1.2,1.6,2.8,1.6,4.8v0.1c0,2-0.5,3.5-1.6,4.7c-1.1,1.2-2.6,1.7-4.4,1.7c-1.8,0-3.2-0.5-4.3-1.6c-1.1-1.1-1.7-2.5-1.8-4.4
			L134.5,42.5z M138.4,42.8c0,1.2,0.2,2,0.5,2.6c0.4,0.5,0.9,0.8,1.6,0.8c1.4,0,2.1-1.1,2.1-3.2v-0.4c0-2.3-0.7-3.4-2.2-3.4
			c-1.3,0-2,1-2.1,2.9L138.4,42.8z"/>
		<path class="st0" d="M147.9,42.6c0-2,0.4-3.6,1.3-4.7c0.9-1.2,2.1-1.7,3.6-1.7c1.1,0,2.1,0.4,2.9,1.3V31h3.9V49h-3.5l-0.2-1.4
			c-0.8,1.1-1.8,1.6-3.1,1.6c-1.5,0-2.7-0.6-3.6-1.7C148.4,46.3,147.9,44.7,147.9,42.6z M151.9,42.8c0,2.2,0.7,3.4,2,3.4
			c0.9,0,1.5-0.4,1.9-1.1v-4.8c-0.4-0.7-1-1.1-1.8-1.1c-1.2,0-1.9,1-2,2.9L151.9,42.8z"/>
		<path class="st0" d="M165.5,36.3l0.1,1.5c0.9-1.1,2.1-1.7,3.6-1.7c1.3,0,2.3,0.4,3,1.2c0.7,0.8,1,2,1,3.6V49h-3.9v-8
			c0-0.6-0.1-1.1-0.4-1.4c-0.3-0.3-0.7-0.5-1.4-0.5c-0.8,0-1.3,0.3-1.7,0.9V49h-3.9V36.3H165.5z"/>
		<path class="st0" d="M175.4,33.1c0-0.6,0.2-1,0.6-1.4c0.4-0.4,0.9-0.5,1.6-0.5c0.6,0,1.2,0.2,1.6,0.5c0.4,0.4,0.6,0.8,0.6,1.4
			c0,0.6-0.2,1-0.6,1.4c-0.4,0.4-0.9,0.5-1.6,0.5c-0.6,0-1.2-0.2-1.6-0.5C175.6,34.1,175.4,33.6,175.4,33.1z M179.5,49h-3.9V36.3
			h3.9V49z"/>
		<path class="st0" d="M187.3,46.2c0.6,0,1-0.1,1.3-0.4c0.3-0.3,0.5-0.7,0.4-1.3h3.7c0,1.4-0.5,2.5-1.5,3.4c-1,0.9-2.3,1.3-3.8,1.3
			c-1.8,0-3.3-0.6-4.3-1.7c-1.1-1.2-1.6-2.7-1.6-4.8v-0.2c0-1.3,0.2-2.4,0.7-3.4c0.5-1,1.2-1.7,2-2.3c0.9-0.5,1.9-0.8,3.2-0.8
			c1.6,0,2.9,0.5,3.9,1.4c1,0.9,1.4,2.1,1.4,3.7H189c0-0.7-0.2-1.2-0.5-1.5c-0.3-0.4-0.7-0.5-1.3-0.5c-1,0-1.6,0.7-1.8,2
			c-0.1,0.4-0.1,1-0.1,1.7c0,1.3,0.2,2.2,0.5,2.6C186.2,45.9,186.6,46.2,187.3,46.2z"/>
		<path class="st0" d="M199,45.9h5.8v3h-10.7v-2.2l5.6-7.4h-5.4v-3h10.4v2.1L199,45.9z"/>
		<path class="st0" d="M213.8,49c-0.1-0.3-0.3-0.6-0.4-1.1c-0.7,0.9-1.7,1.4-3,1.4c-1.2,0-2.2-0.4-3-1.1c-0.8-0.7-1.3-1.6-1.3-2.7
			c0-1.4,0.5-2.4,1.5-3.1c1-0.7,2.5-1.1,4.4-1.1h1.2v-0.7c0-1.2-0.5-1.7-1.5-1.7c-0.9,0-1.4,0.5-1.4,1.4h-3.9c0-1.2,0.5-2.2,1.6-3
			c1-0.8,2.4-1.1,4-1.1c1.6,0,2.9,0.4,3.8,1.2c0.9,0.8,1.4,1.9,1.4,3.2v5.6c0,1.2,0.2,2,0.5,2.7V49H213.8z M211.4,46.4
			c0.5,0,0.9-0.1,1.2-0.3c0.3-0.2,0.6-0.4,0.7-0.7v-2h-1.1c-1.4,0-2.1,0.6-2.1,1.8c0,0.4,0.1,0.6,0.4,0.9
			C210.7,46.3,211,46.4,211.4,46.4z"/>
	</g>
	<path class="st0" d="M46.7,48.3c-1,0.1-1.8,1-1.8,2v3.8H31.4c0.3-2.2,1.2-4.6,2.1-7.4c1.8-5.2,4.1-11.6,5-21.6
		c0.5-5.4-0.3-8.9-2.6-11c-3.2-2.9-8.2-2-13.5-1l-0.1,0c-3.7,0.7-7.5,0.7-11.1,0c-0.3-0.1-1-0.3-1-0.3c-3.4-1.4-5.7-0.5-7,0.4
		C0.7,15-0.4,19,0.1,25.1c0.8,10.3,3.7,16.9,6,22.2c1.5,3.5,2.7,6.2,2.7,8.8c0,0.8,0.5,1.6,1.2,1.8c1.4,0.5,2.7-0.5,2.7-1.8
		c0-3.4-1.4-6.7-3-10.4c-2.2-5-4.9-11.2-5.7-20.9c-0.5-6.2,0.9-8,1.6-8.5c0.9-0.7,2.2-0.3,3.2,0.1c0.9,0.3,1.8,1.2,2.9,2.3
		c2.6,2.5,6.2,5.9,12.8,5.5c1-0.1,1.9-0.9,1.9-1.9c0-1.2-0.9-2.1-2.1-2c-3.8,0.2-6.2-1.1-8.2-2.8c2.3,0,4.6-0.1,6.9-0.6l0.1,0
		c4.3-0.8,8.4-1.6,10.2,0.1c1.3,1.2,1.7,3.8,1.4,7.8c-0.9,9.5-3.1,15.7-4.8,20.7c-1.4,4-2.5,7.1-2.5,10.6c0,1.1,0.9,1.9,1.9,1.9
		c0,0,0,0,0.1,0c0,0,0,0,0.1,0h17.5c1.1,0,1.9-0.9,1.9-1.9v-5.8C48.9,49.1,47.9,48.2,46.7,48.3"/>
	<path class="st0" d="M59.8,48.9L48.3,37.3c-0.8-0.8-2-0.8-2.8,0L38.8,44c-0.2,0.7-0.3,1.3-0.5,1.9c-0.5,2-0.9,3.7-1.2,5.3l9.8-9.8
		L57,51.6c0.4,0.4,0.9,0.6,1.4,0.6c0.5,0,1-0.2,1.4-0.6C60.5,50.8,60.5,49.6,59.8,48.9"/>
	<path class="st0" d="M61.2,38l-13-13c-0.8-0.8-2-0.8-2.8,0l-3.8,3.8c-0.3,2.4-0.7,4.6-1,6.5l6.2-6.2l11.6,11.6
		c0.4,0.4,0.9,0.6,1.4,0.6c0.5,0,1-0.2,1.4-0.6C62,40,62,38.8,61.2,38"/>
	<path class="st0" d="M57.3,21.7l-9.1-9.1c-0.8-0.8-2-0.8-2.8,0l-3.8,3.8c0.4,1.4,0.6,3,0.6,4.9l4.5-4.5l7.7,7.7
		c0.8,0.8,2,0.8,2.8,0C58.1,23.7,58.1,22.5,57.3,21.7"/>
</g>
</svg>
