<?xml version="1.0" encoding="utf-8"?>
<!-- Generator: Adobe Illustrator 27.9.0, SVG Export Plug-In . SVG Version: 6.00 Build 0)  -->
<svg version="1.1" id="Warstwa_1" xmlns="http://www.w3.org/2000/svg" xmlns:xlink="http://www.w3.org/1999/xlink" x="0px" y="0px"
	 viewBox="0 0 112.7 70" style="enable-background:new 0 0 112.7 70;" xml:space="preserve">
<style type="text/css">
	.st0{fill:#ECF0EC;}
	.st1{fill:#FFFFFF;filter:url(#Adobe_OpacityMaskFilter);}
	.st2{mask:url(#path-10-outside-1_339:55669_00000099651388943458896420000012285066786253445259_);fill:#ECF0EC;}
	.st3{fill:#FFFFFF;filter:url(#Adobe_OpacityMaskFilter_00000146491202594829043310000006520190779845282186_);}
	.st4{mask:url(#path-10-outside-1_339:55669_00000054979936075889968510000014467787371587587741_);fill:#ECF0EC;}
	.st5{fill:#FFFFFF;filter:url(#Adobe_OpacityMaskFilter_00000091014565219345007040000015317150407218878910_);}
	.st6{mask:url(#path-10-outside-1_339:55669_00000054969719097886530460000013980029244576352187_);fill:#ECF0EC;}
	.st7{fill:#FFFFFF;filter:url(#Adobe_OpacityMaskFilter_00000029008769733013917520000018274607426646939811_);}
	.st8{mask:url(#path-10-outside-1_339:55669_00000178180992152837586590000016094212355234682253_);fill:#ECF0EC;}
	.st9{fill:#FFFFFF;filter:url(#Adobe_OpacityMaskFilter_00000067219273657188676150000016229907993887974069_);}
	.st10{mask:url(#path-10-outside-1_339:55669_00000041257820006217942810000010378333196339762352_);fill:#ECF0EC;}
	.st11{fill:#FFFFFF;filter:url(#Adobe_OpacityMaskFilter_00000025431353063071991930000012235282946044515468_);}
	.st12{mask:url(#path-10-outside-1_339:55669_00000040573621576249879810000016601533366907391137_);fill:#ECF0EC;}
	.st13{fill:#FFFFFF;filter:url(#Adobe_OpacityMaskFilter_00000044874383006663073810000011074467047964059319_);}
	.st14{mask:url(#path-10-outside-1_339:55669_00000151535008632269703220000004935159254720457123_);fill:#ECF0EC;}
	.st15{fill:#FFFFFF;filter:url(#Adobe_OpacityMaskFilter_00000158727100496076434620000016240167724130660270_);}
	.st16{mask:url(#path-10-outside-1_339:55669_00000120526621003762177590000010227427899695847870_);fill:#ECF0EC;}
	.st17{fill:#FFFFFF;filter:url(#Adobe_OpacityMaskFilter_00000013895979922903969220000007386815039836914311_);}
	.st18{mask:url(#path-10-outside-1_339:55669_00000134938762592159093990000008155154943761419949_);fill:#ECF0EC;}
	.st19{fill:#FFFFFF;filter:url(#Adobe_OpacityMaskFilter_00000171693689169991672440000012941106105490941837_);}
	.st20{mask:url(#path-10-outside-1_339:55669_00000080184158529572248030000014183963753888544896_);fill:#ECF0EC;}
	.st21{fill:#FFFFFF;filter:url(#Adobe_OpacityMaskFilter_00000087390092916274512390000011708257654979958689_);}
	.st22{mask:url(#path-10-outside-1_339:55669_00000157308535592812109870000009406262635045377684_);fill:#ECF0EC;}
	.st23{fill:#FFFFFF;filter:url(#Adobe_OpacityMaskFilter_00000180328454395362794580000001612354768892842899_);}
	.st24{mask:url(#path-10-outside-1_339:55669_00000108271735842014824690000015943840513121822860_);fill:#ECF0EC;}
	.st25{fill:#FFFFFF;filter:url(#Adobe_OpacityMaskFilter_00000013891597543972585010000013223216665757803934_);}
	.st26{mask:url(#path-10-outside-1_339:55669_00000002367814599035056030000002247858341177150139_);fill:#ECF0EC;}
	.st27{fill:#FFFFFF;filter:url(#Adobe_OpacityMaskFilter_00000143594226031979640550000010086594123105564820_);}
	.st28{mask:url(#path-10-outside-1_339:55669_00000128459139480024480380000015195325364941517474_);fill:#ECF0EC;}
	.st29{fill:#FFFFFF;filter:url(#Adobe_OpacityMaskFilter_00000025406732734958929590000007160719501320649344_);}
	.st30{mask:url(#path-10-outside-1_339:55669_00000153678184447732955690000006302196440870717323_);fill:#ECF0EC;}
	.st31{fill-rule:evenodd;clip-rule:evenodd;fill:#ECF0EC;}
	.st32{clip-path:url(#SVGID_00000132784993425384000580000015907341484151428023_);fill:#ECF0EC;}
</style>
<g>
	<g>
		<g>
			<path class="st0" d="M56.3,51.7c-10.6,0-19.2-8.6-19.2-19.2V19.2C37.1,8.6,45.7,0,56.3,0s19.2,8.6,19.2,19.2v13.2
				C75.6,43.1,66.9,51.7,56.3,51.7z M56.3,1.1c-10,0-18.1,8.1-18.1,18.1v13.2c0,10,8.1,18.1,18.1,18.1c10,0,18.1-8.1,18.1-18.1V19.2
				C74.4,9.3,66.3,1.1,56.3,1.1z"/>
		</g>
	</g>
	<g>
		<g>
			<g>
				<path class="st0" d="M56.3,42.8c-1.6,0-3.2-0.3-4.7-1c-1.5-0.6-2.8-1.5-3.9-2.6c-1.1-1.1-2-2.4-2.6-3.9c-0.6-1.5-1-3.1-1-4.7
					c0-2.3,0.6-4.5,1.8-6.4l8.9-14.4C55.2,9.3,55.8,9,56.3,9c0.6,0,1.1,0.3,1.4,0.8l8.9,14.4c1.2,1.9,1.8,4.1,1.8,6.4
					c0,1.6-0.3,3.2-1,4.7l0,0c-0.6,1.5-1.5,2.8-2.6,3.9c-1.1,1.1-2.4,2-3.9,2.6C59.6,42.4,58,42.8,56.3,42.8z M56.3,10.1
					c-0.2,0-0.4,0.1-0.5,0.2l-8.9,14.4c-1.1,1.7-1.6,3.7-1.6,5.8c0,1.5,0.3,2.9,0.9,4.3c0.6,1.3,1.4,2.5,2.4,3.5
					c1,1,2.2,1.8,3.5,2.4c2.7,1.2,5.9,1.2,8.6,0c1.3-0.6,2.5-1.4,3.5-2.4c1-1,1.8-2.2,2.4-3.5l0,0c0.6-1.4,0.9-2.8,0.9-4.3
					c0-2.1-0.6-4.1-1.6-5.8l-8.9-14.4C56.7,10.2,56.5,10.1,56.3,10.1z"/>
			</g>
		</g>
		<g>
			<g>
				<path class="st0" d="M49.2,36.6c-0.3,0-0.5,0-0.8-0.1c-1.1-0.1-2.3-0.7-3.3-1.6c-0.2-0.2-0.3-0.6-0.1-0.8
					c0.2-0.2,0.6-0.3,0.8-0.1c0.9,0.7,1.9,1.2,2.7,1.3c1.3,0.2,3-0.2,4-1.7c1.5-2.2,0.3-4.5-1.1-7.2c-0.2-0.3-0.3-0.6-0.5-0.9
					c-1.2-2.4-1.8-4.7-2.1-6l0-0.2c-0.7-2.9-0.6-5.6,0.3-7.9c0.8-2.2,0.8-3.7-0.3-4.6c-1.5-1.3-4.8-0.7-5.3-0.4
					c-0.2,0.2-0.5,0.2-0.7,0.1c-0.3-0.2-0.3-0.5-0.2-0.8c0.5-0.7,4.1-1.3,6.2-0.2c1.4,0.7,2.8,2.4,1.3,6.3c-0.8,2-0.9,4.5-0.2,7.2
					l0,0.2c0.3,1.3,0.8,3.5,2,5.8c0.2,0.3,0.3,0.6,0.5,0.9c1.5,2.7,3,5.5,1.1,8.3C52.6,35.8,51,36.6,49.2,36.6z M43.5,6.5
					C43.5,6.5,43.5,6.5,43.5,6.5L43.5,6.5z"/>
			</g>
		</g>
		<g>
			<g>
				<path class="st0" d="M62.4,50.7c-0.1,0-0.2,0-0.3-0.1c-0.2-0.1-4.5-3.3,0.4-10.9c1.5-2.3,2.3-4.5,2.3-6
					c-0.1-2.8-1.5-4.5-3.2-6.5c-0.3-0.4-0.7-0.8-1-1.2c-1.5-1.8-2.8-3.6-3.5-5.7c-0.9-2.8,0.3-5.1,1.8-7.1c0.2-0.3,0.5-0.3,0.8-0.1
					c0.3,0.2,0.3,0.5,0.1,0.8c-1.2,1.7-2.4,3.7-1.6,6.1c0.6,2,1.9,3.6,3.3,5.4c0.3,0.4,0.7,0.8,1,1.2c1.6,1.9,3.4,4,3.5,7.2
					c0.1,1.7-0.8,4.1-2.5,6.6c-4.3,6.7-0.8,9.3-0.7,9.4c0.3,0.2,0.3,0.5,0.1,0.8C62.8,50.6,62.6,50.7,62.4,50.7z"/>
			</g>
		</g>
	</g>
	<g>
		<g>
			<g>
				<path class="st0" d="M2.8,63.7c-1-0.2-1.6-0.3-1.6-0.9c0-0.5,0.5-0.9,1.4-0.9c0.9,0,1.4,0.4,1.4,1l0,0.1h1.1l0-0.1
					c0-1.3-1-2.1-2.5-2.1c-1.5,0-2.5,0.8-2.5,2c0,1.6,1.3,1.8,2.4,2c1,0.2,1.6,0.3,1.6,1c0,0.6-0.6,0.9-1.5,0.9
					c-0.9,0-1.5-0.4-1.6-1.1l0-0.1H0l0,0.1c0.1,1.3,1.1,2.2,2.7,2.2l0,0c1.6,0,2.7-0.8,2.7-2.1C5.4,64.1,4,63.8,2.8,63.7z"/>
			</g>
		</g>
		<g>
			<g>
				<path class="st0" d="M12.4,65.3c-0.4,0.8-1.1,1.3-2.1,1.3c-1.3,0-2.3-1-2.3-2.3C8,63,9,62,10.3,62c0.9,0,1.7,0.5,2.1,1.3l0,0
					h1.2l0-0.1c-0.4-1.5-1.7-2.4-3.3-2.4c-2,0-3.5,1.5-3.5,3.5c0,2,1.5,3.5,3.5,3.5c1.6,0,2.9-1,3.3-2.4l0-0.1L12.4,65.3L12.4,65.3z
					"/>
			</g>
		</g>
		<g>
			<g>
				<rect x="15.4" y="61" class="st0" width="1.2" height="6.7"/>
			</g>
		</g>
		<g>
			<g>
				<rect x="15.4" y="58.7" class="st0" width="1.3" height="1.3"/>
			</g>
		</g>
		<g>
			<g>
				<path class="st0" d="M22,60.8c-1.9,0-3.4,1.5-3.4,3.5c0,2,1.5,3.5,3.4,3.5c1.5,0,2.6-0.8,3.2-2.2l0-0.1H24l0,0
					c-0.4,0.7-1.1,1.1-2,1.1c-1.2,0-2-0.7-2.2-1.8h5.5l0-0.1c0-0.1,0-0.2,0-0.4C25.4,62.3,24,60.8,22,60.8z M19.9,63.7
					c0.2-1,1.1-1.7,2.2-1.7h0c1.1,0,1.9,0.7,2.2,1.7H19.9z"/>
			</g>
		</g>
		<g>
			<g>
				<path class="st0" d="M30.7,60.8c-0.9,0-1.8,0.4-2.3,1L28.3,61h-0.9v6.7h1.2V64c0-1.2,0.8-2.1,1.9-2.1c1.1,0,1.7,0.7,1.7,2v3.7
					h1.2v-4C33.3,62,32.3,60.8,30.7,60.8z"/>
			</g>
		</g>
		<g>
			<g>
				<path class="st0" d="M40.8,65.3c-0.4,0.8-1.1,1.3-2.1,1.3c-1.3,0-2.3-1-2.3-2.3c0-1.3,1-2.3,2.3-2.3c0.9,0,1.7,0.5,2.1,1.3l0,0
					H42l0-0.1c-0.4-1.5-1.7-2.4-3.3-2.4c-2,0-3.5,1.5-3.5,3.5c0,2,1.5,3.5,3.5,3.5c1.6,0,2.9-1,3.3-2.4l0-0.1L40.8,65.3L40.8,65.3z"
					/>
			</g>
		</g>
		<g>
			<g>
				<path class="st0" d="M46.7,60.8c-1.9,0-3.4,1.5-3.4,3.5c0,2,1.5,3.5,3.4,3.5c1.5,0,2.6-0.8,3.2-2.2l0-0.1h-1.3l0,0
					c-0.4,0.7-1.1,1.1-2,1.1c-1.2,0-2-0.7-2.2-1.8h5.5l0-0.1c0-0.1,0-0.2,0-0.4C50.1,62.3,48.7,60.8,46.7,60.8z M44.6,63.7
					c0.2-1,1.1-1.7,2.2-1.7h0c1.1,0,1.9,0.7,2.2,1.7H44.6z"/>
			</g>
		</g>
		<g>
			<g>
				<polygon class="st0" points="60.3,62.4 59.4,62.4 59.2,64.9 56.6,64.9 59.1,59.5 57.9,59.5 55.1,65.6 55.1,66 59.2,66 
					59.2,67.7 60.3,67.7 60.3,66 61.2,66 61.2,64.9 60.3,64.9 				"/>
			</g>
		</g>
		<g>
			<g>
				<path class="st0" d="M70.3,60.8L70.3,60.8c-0.9,0-1.7,0.3-2.3,0.9v-3h-1.2v9h0.9l0.1-0.8c0.6,0.6,1.5,1,2.5,1
					c2,0,3.4-1.5,3.4-3.5C73.7,62.3,72.3,60.8,70.3,60.8z M72.5,64.3c0,1.4-1,2.3-2.3,2.3c-1.3,0-2.3-1-2.3-2.3s1-2.3,2.3-2.3
					C71.5,62,72.5,63,72.5,64.3z"/>
			</g>
		</g>
		<g>
			<g>
				<path class="st0" d="M78.6,60.8c-1.9,0-3.4,1.5-3.4,3.5c0,2,1.5,3.5,3.4,3.5c1.5,0,2.6-0.8,3.2-2.2l0-0.1h-1.3l0,0
					c-0.4,0.7-1.1,1.1-2,1.1c-1.2,0-2-0.7-2.2-1.8h5.5l0-0.1c0-0.1,0-0.2,0-0.4C82,62.3,80.6,60.8,78.6,60.8z M76.4,63.7
					c0.2-1,1.1-1.7,2.2-1.7h0c1.1,0,1.9,0.7,2.2,1.7H76.4z"/>
			</g>
		</g>
		<g>
			<g>
				<path class="st0" d="M89.4,61.9c-0.6-0.7-1.5-1-2.5-1c-2,0-3.5,1.5-3.5,3.5c0,2,1.5,3.5,3.5,3.5c1,0,1.9-0.4,2.5-1l0.1,0.9h1V61
					h-1L89.4,61.9z M89.3,64.3c0,1.4-1,2.3-2.3,2.3c-1.3,0-2.3-1-2.3-2.3c0-1.3,1-2.3,2.3-2.3C88.3,62,89.3,63,89.3,64.3z"/>
			</g>
		</g>
		<g>
			<g>
				<path class="st0" d="M97.6,64.7c0,1.2-0.7,2-1.8,2c-1.1,0-1.8-0.8-1.8-2V61h-1.2v3.9c0,1.8,1.2,3,3,3c1.8,0,3-1.2,3-3V61h-1.2
					V64.7z"/>
			</g>
		</g>
		<g>
			<g>
				<path class="st0" d="M102.7,65.3v-3.2h2V61h-2v-1.4h-0.3l-2.1,2.2v0.3h1.1v3.2c0,1.5,0.9,2.4,2.3,2.4h0.9v-1.1H104
					C103.2,66.6,102.7,66.1,102.7,65.3z"/>
			</g>
		</g>
		<g>
			<g>
				<path class="st0" d="M111.4,61l-2.1,4.8L107,61h-1.3l2.9,6.2l-0.2,0.5c-0.5,1.1-0.8,1.3-1.6,1.3h-0.6V70h0.7
					c1.2,0,1.9-0.5,2.6-2.1l3.2-6.9H111.4z"/>
			</g>
		</g>
	</g>
</g>
</svg>
