<?xml version="1.0" encoding="utf-8"?>
<!-- Generator: Adobe Illustrator 27.9.0, SVG Export Plug-In . SVG Version: 6.00 Build 0)  -->
<svg version="1.1" id="Warstwa_1" xmlns="http://www.w3.org/2000/svg" xmlns:xlink="http://www.w3.org/1999/xlink" x="0px" y="0px"
	 viewBox="0 0 180.9 70" style="enable-background:new 0 0 180.9 70;" xml:space="preserve">
<style type="text/css">
	.st0{fill:#ECF0EC;}
	.st1{fill:#FFFFFF;filter:url(#Adobe_OpacityMaskFilter);}
	.st2{mask:url(#path-10-outside-1_339:55669_00000099651388943458896420000012285066786253445259_);fill:#ECF0EC;}
	.st3{fill:#FFFFFF;filter:url(#Adobe_OpacityMaskFilter_00000005251919778071360900000008259495698704667569_);}
	.st4{mask:url(#path-10-outside-1_339:55669_00000054979936075889968510000014467787371587587741_);fill:#ECF0EC;}
	.st5{fill:#FFFFFF;filter:url(#Adobe_OpacityMaskFilter_00000176001749616976888260000011286921941933850812_);}
	.st6{mask:url(#path-10-outside-1_339:55669_00000054969719097886530460000013980029244576352187_);fill:#ECF0EC;}
	.st7{fill:#FFFFFF;filter:url(#Adobe_OpacityMaskFilter_00000182519715250322671260000008353711939940741783_);}
	.st8{mask:url(#path-10-outside-1_339:55669_00000178180992152837586590000016094212355234682253_);fill:#ECF0EC;}
	.st9{fill:#FFFFFF;filter:url(#Adobe_OpacityMaskFilter_00000026145154472329781030000007640555636397050756_);}
	.st10{mask:url(#path-10-outside-1_339:55669_00000041257820006217942810000010378333196339762352_);fill:#ECF0EC;}
	.st11{fill:#FFFFFF;filter:url(#Adobe_OpacityMaskFilter_00000094591715884963199360000001358688359568546189_);}
	.st12{mask:url(#path-10-outside-1_339:55669_00000040573621576249879810000016601533366907391137_);fill:#ECF0EC;}
	.st13{fill:#FFFFFF;filter:url(#Adobe_OpacityMaskFilter_00000013159579435172447810000002160172927979787169_);}
	.st14{mask:url(#path-10-outside-1_339:55669_00000151535008632269703220000004935159254720457123_);fill:#ECF0EC;}
	.st15{fill:#FFFFFF;filter:url(#Adobe_OpacityMaskFilter_00000012470745128090150530000001515377821533023390_);}
	.st16{mask:url(#path-10-outside-1_339:55669_00000120526621003762177590000010227427899695847870_);fill:#ECF0EC;}
	.st17{fill:#FFFFFF;filter:url(#Adobe_OpacityMaskFilter_00000145048420530729035260000017225843694732333239_);}
	.st18{mask:url(#path-10-outside-1_339:55669_00000134938762592159093990000008155154943761419949_);fill:#ECF0EC;}
	.st19{fill:#FFFFFF;filter:url(#Adobe_OpacityMaskFilter_00000147938837452635018860000015005973501915948438_);}
	.st20{mask:url(#path-10-outside-1_339:55669_00000080184158529572248030000014183963753888544896_);fill:#ECF0EC;}
	.st21{fill:#FFFFFF;filter:url(#Adobe_OpacityMaskFilter_00000120543863356979749600000011443348024193243311_);}
	.st22{mask:url(#path-10-outside-1_339:55669_00000157308535592812109870000009406262635045377684_);fill:#ECF0EC;}
	.st23{fill:#FFFFFF;filter:url(#Adobe_OpacityMaskFilter_00000054261941842422560470000011102563778952306604_);}
	.st24{mask:url(#path-10-outside-1_339:55669_00000108271735842014824690000015943840513121822860_);fill:#ECF0EC;}
	.st25{fill:#FFFFFF;filter:url(#Adobe_OpacityMaskFilter_00000098936371522708771410000008290504180638356369_);}
	.st26{mask:url(#path-10-outside-1_339:55669_00000002367814599035056030000002247858341177150139_);fill:#ECF0EC;}
	.st27{fill:#FFFFFF;filter:url(#Adobe_OpacityMaskFilter_00000096054275464584906790000013959833948380396961_);}
	.st28{mask:url(#path-10-outside-1_339:55669_00000128459139480024480380000015195325364941517474_);fill:#ECF0EC;}
	.st29{fill:#FFFFFF;filter:url(#Adobe_OpacityMaskFilter_00000152259612914695103520000006111513055554283158_);}
	.st30{mask:url(#path-10-outside-1_339:55669_00000153678184447732955690000006302196440870717323_);fill:#ECF0EC;}
	.st31{fill-rule:evenodd;clip-rule:evenodd;fill:#ECF0EC;}
	.st32{clip-path:url(#SVGID_00000068658204846323500470000013242114006228422045_);fill:#ECF0EC;}
</style>
<g>
	<path class="st0" d="M5.3,46.6c-1.6-0.9-2.9-2.3-3.9-4C0.5,40.9,0,38.9,0,36.8c0-2.3,0.5-4.2,1.4-5.9c0.9-1.7,2.2-3,3.9-4
		c1.6-0.9,3.5-1.4,5.5-1.4c2,0,3.9,0.5,5.5,1.4c1.6,0.9,2.9,2.3,3.9,4c0.9,1.7,1.4,3.7,1.4,5.9c0,2.2-0.5,4.2-1.4,5.9
		c-0.9,1.7-2.2,3-3.9,4c-1.6,0.9-3.5,1.4-5.5,1.4C8.7,48,6.9,47.5,5.3,46.6z M14.3,40.7c0.9-1,1.3-2.4,1.3-4c0-1.6-0.4-3-1.3-4
		c-0.9-1-2.1-1.6-3.5-1.6c-1.5,0-2.6,0.5-3.5,1.6c-0.9,1-1.3,2.4-1.3,4c0,1.6,0.4,2.9,1.3,4c0.9,1,2,1.5,3.5,1.5
		C12.2,42.3,13.4,41.8,14.3,40.7z"/>
	<path class="st0" d="M26.7,46.1c-1.7-1.2-2.5-3-2.5-5.4h6.1c0.1,0.7,0.3,1.3,0.9,1.8c0.5,0.5,1.2,0.7,2.1,0.7
		c0.9,0,1.6-0.2,2.2-0.6c0.6-0.4,0.8-0.9,0.8-1.5c0-0.6-0.3-1-0.9-1.3c-0.6-0.3-1.6-0.5-3-0.8c-1.6-0.3-2.9-0.6-3.9-1
		c-1-0.4-1.9-1-2.7-1.9c-0.8-0.9-1.1-2.1-1.1-3.7c0-1.4,0.4-2.6,1.1-3.7c0.7-1.1,1.8-1.9,3.2-2.5c1.4-0.6,3-0.9,4.8-0.9
		c1.4,0,2.8,0.3,4.1,0.9c1.3,0.6,2.4,1.4,3.3,2.6c0.9,1.1,1.3,2.5,1.3,4h-6c0-0.7-0.3-1.3-0.8-1.7c-0.5-0.4-1.2-0.7-1.9-0.7
		c-0.8,0-1.5,0.2-2,0.6c-0.5,0.4-0.7,0.9-0.7,1.5c0,0.6,0.3,1.1,1,1.3c0.6,0.3,1.7,0.6,3.1,0.9c1.5,0.3,2.8,0.7,3.8,1.1
		c1,0.4,1.9,1,2.6,1.8c0.7,0.8,1.1,2,1.1,3.4c0,2.1-0.8,3.7-2.5,5c-1.6,1.2-4,1.9-6.9,1.9C30.6,48,28.4,47.4,26.7,46.1z"/>
	<path class="st0" d="M53.4,26v2.7c0.6-1,1.4-1.8,2.3-2.4c1-0.6,2.1-0.8,3.4-0.8c3,0,5.2,1.1,6.4,3.4c0.7-1,1.6-1.8,2.7-2.5
		c1.1-0.6,2.4-0.9,3.9-0.9c2.7,0,4.8,0.7,6.3,2.2c1.5,1.5,2.3,3.7,2.3,6.7v13.1h-5.9V35.4c0-1.3-0.3-2.3-0.8-3.1
		c-0.5-0.8-1.4-1.2-2.6-1.2c-1.3,0-2.3,0.4-3.1,1.2c-0.8,0.8-1.2,1.8-1.2,3v12.1h-5.9V35.4c0-1.3-0.3-2.3-0.8-3.1
		c-0.6-0.8-1.4-1.2-2.7-1.2c-1.2,0-2.3,0.4-3.1,1.2c-0.8,0.8-1.2,1.8-1.2,3v12.1h-5.9V26H53.4z"/>
	<path class="st0" d="M89.9,46.6c-1.6-0.9-2.9-2.3-3.9-4c-0.9-1.7-1.4-3.7-1.4-5.9c0-2.3,0.5-4.2,1.4-5.9c0.9-1.7,2.2-3,3.9-4
		c1.6-0.9,3.5-1.4,5.5-1.4c2,0,3.9,0.5,5.5,1.4c1.6,0.9,2.9,2.3,3.9,4c0.9,1.7,1.4,3.7,1.4,5.9c0,2.2-0.5,4.2-1.4,5.9
		c-0.9,1.7-2.2,3-3.9,4c-1.6,0.9-3.5,1.4-5.5,1.4C93.4,48,91.6,47.5,89.9,46.6z M99,40.7c0.9-1,1.3-2.4,1.3-4c0-1.6-0.4-3-1.3-4
		c-0.9-1-2.1-1.6-3.5-1.6c-1.5,0-2.6,0.5-3.5,1.6c-0.9,1-1.3,2.4-1.3,4c0,1.6,0.4,2.9,1.3,4c0.9,1,2,1.5,3.5,1.5
		C96.9,42.3,98.1,41.8,99,40.7z"/>
	<path class="st0" d="M119,46.9c-1.2-0.8-2.1-1.8-2.8-3.2v3.9h-5.3V18h5.9v11c0.7-1.1,1.5-2,2.6-2.6c1-0.6,2.2-0.9,3.6-0.9
		c1.7,0,3.2,0.5,4.6,1.4c1.3,0.9,2.4,2.3,3.2,4c0.8,1.7,1.1,3.7,1.1,5.9c0,2.2-0.4,4.2-1.1,5.9c-0.8,1.7-1.8,3-3.2,4
		c-1.3,0.9-2.9,1.4-4.6,1.4C121.5,48,120.2,47.6,119,46.9z M124.7,40.7c0.9-1,1.3-2.4,1.3-4c0-1.6-0.4-3-1.3-4c-0.9-1-2-1.6-3.4-1.6
		c-1.3,0-2.5,0.5-3.3,1.6c-0.9,1.1-1.3,2.4-1.3,4c0,1.6,0.4,2.9,1.3,4c0.9,1,2,1.5,3.3,1.5C122.6,42.3,123.8,41.8,124.7,40.7z"/>
	<path class="st0" d="M137.9,45.8c-1.4-1.5-2.1-3.7-2.1-6.7V26h5.9v12c0,1.3,0.3,2.3,0.8,3.1c0.6,0.8,1.4,1.2,2.6,1.2
		c1.2,0,2.3-0.4,3.1-1.2c0.8-0.8,1.2-1.8,1.2-3V26h5.9v21.6h-5.9v-2.8c-0.6,1-1.4,1.8-2.4,2.4S145,48,143.7,48
		C141.3,48,139.3,47.3,137.9,45.8z"/>
	<path class="st0" d="M164.3,46.6c-1.3-0.9-2.4-2.3-3.2-4c-0.8-1.7-1.2-3.7-1.2-5.9c0-2.3,0.4-4.2,1.1-5.9c0.8-1.7,1.8-3,3.2-4
		c1.4-0.9,2.9-1.4,4.6-1.4c2.7,0,4.7,1.2,6.2,3.5V18h5.9v29.5h-5.4v-3.9c-0.7,1.4-1.6,2.4-2.7,3.2c-1.2,0.8-2.5,1.2-4,1.2
		C167.1,48,165.6,47.5,164.3,46.6z M173.9,40.7c0.9-1,1.3-2.4,1.3-4c0-1.6-0.4-3-1.3-4c-0.9-1-2-1.6-3.4-1.6c-1.3,0-2.5,0.5-3.3,1.6
		c-0.9,1.1-1.3,2.4-1.3,4c0,1.6,0.4,2.9,1.3,4c0.9,1,2,1.5,3.3,1.5C171.9,42.3,173.1,41.8,173.9,40.7z"/>
</g>
</svg>
