<?xml version="1.0" encoding="UTF-8"?><svg id="Warstwa_1" xmlns="http://www.w3.org/2000/svg" viewBox="0 0 162 162"><defs><style>.cls-1{fill:#81dda2;stroke-width:0px;}</style></defs><g id="Warstwa_1-2"><path id="Path_390" class="cls-1" d="M140.87,98.59l18.9-6.28-16.38-11.31,16.38-11.32-18.9-6.27,12.52-15.48-19.89-.66,7.63-18.38-19.27,4.95,2.17-19.79-17.11,10.17-3.5-19.6-13.53,14.61L81,1.43l-8.89,17.81-13.53-14.61-3.51,19.6-17.11-10.17,2.17,19.79-19.28-4.95,7.63,18.38-19.89.66,12.51,15.48-18.89,6.27,16.38,11.32-16.38,11.31,18.89,6.28-12.51,15.47,19.89.67-7.63,18.38,19.28-4.96-2.17,19.79,17.11-10.17,3.51,19.59,13.53-14.6,8.89,17.8,8.89-17.8,13.53,14.6,3.5-19.59,17.11,10.17-2.17-19.79,19.27,4.95-7.63-18.38,19.89-.66-12.51-15.48Z"/></g></svg>