<?xml version="1.0" encoding="UTF-8"?><svg id="Warstwa_1" xmlns="http://www.w3.org/2000/svg" viewBox="0 0 162 162"><defs><style>.cls-1{fill:#81dda2;stroke-width:0px;}</style></defs><path class="cls-1" d="M15.8,100.77v-39.53c-3.89,12.89-3.89,26.64,0,39.53Z"/><path class="cls-1" d="M22.81,116.43c2.59,4.25,5.64,8.2,9.09,11.78V33.79c-3.45,3.59-6.5,7.54-9.09,11.79v70.85Z"/><path class="cls-1" d="M37.56,133.47c3.25,2.69,6.74,5.07,10.43,7.11V21.4c-3.69,2.04-7.18,4.42-10.43,7.11v104.96Z"/><path class="cls-1" d="M52.32,142.8c3.78,1.77,7.73,3.17,11.77,4.21V15c-4.05,1.03-7.99,2.44-11.77,4.21v123.59Z"/><path class="cls-1" d="M67.06,147.69c4.31.9,8.7,1.37,13.1,1.42V12.89c-4.4.04-8.79.52-13.1,1.42v133.39Z"/><path class="cls-1" d="M129.16,32.83c-12.56-12.6-29.56-19.76-47.34-19.95v136.23c37.62-.45,67.75-31.32,67.29-68.94-.21-17.78-7.37-34.77-19.95-47.35Z"/></svg>