<svg id="Group_50" data-name="Group 50" xmlns="http://www.w3.org/2000/svg" xmlns:xlink="http://www.w3.org/1999/xlink" width="229.861" height="128.12" viewBox="0 0 229.861 128.12">
  <defs>
    <clipPath id="clip-path">
      <path id="Path_36" data-name="Path 36" d="M0-110.922H229.861v-128.12H0Z" transform="translate(0 239.042)" fill="#ecf0ec"/>
    </clipPath>
  </defs>
  <g id="Group_48" data-name="Group 48" clip-path="url(#clip-path)">
    <g id="Group_46" data-name="Group 46" transform="translate(0 0)">
      <path id="Path_34" data-name="Path 34" d="M-60.95-28.327c-9.191-8.271-17.095-8.822-20.587-8.822-3.86,0-8.639.552-11.949,4.227A10.97,10.97,0,0,0-96.61-25.2a8.6,8.6,0,0,0,2.757,6.8c2.94,2.758,7.169,3.86,15.441,6.985l9.191,3.492c5.33,2.023,11.947,4.78,16.726,9.376,7.169,6.8,9.008,15.624,9.008,22.793,0,12.683-4.412,23.711-10.846,30.329-10.844,11.4-26.652,12.5-34.741,12.5-8.822,0-16.543-1.287-24.264-5.147-6.249-3.124-13.418-8.822-18.013-13.418l14.7-20.22a75.046,75.046,0,0,0,11.4,9.374,28.479,28.479,0,0,0,15.441,4.412c3.677,0,8.824-.735,12.868-4.227a12.7,12.7,0,0,0,4.412-9.927A10.809,10.809,0,0,0-76.758,19.1C-80.067,16.342-87.6,13.583-91.1,12.3L-101.205,8.8c-5.7-2.022-12.316-4.6-17.095-9.742-6.434-6.8-7.354-15.44-7.354-21.322,0-10.846,3.309-20.036,10.662-27.574,8.639-8.823,18.933-11.213,30.329-11.213a59.256,59.256,0,0,1,36.4,12.133Z" transform="translate(131.351 61.046)" fill="#ecf0ec"/>
    </g>
    <g id="Group_47" data-name="Group 47" transform="translate(94.515 0)">
      <path id="Path_35" data-name="Path 35" d="M-54.97-92.125c-9.1-.1-20.6-5-26.423-12.647-4.406-5.794-8.027-15.088-8.027-29.058,0-11.4,3.676-21.874,10.478-29.042,5.882-6.25,14.153-9.926,25.367-9.926a30.744,30.744,0,0,1,18.749,5.882,37.124,37.124,0,0,1,10.845,13.235l25.55-13.786c-4.412-7.721-11.58-16.36-19.852-21.874-11.4-7.537-24.264-9.191-34.374-9.191-14.522,0-33.087,2.206-48.16,17.83-10.294,10.477-17.646,26.47-17.646,46.505,0,24.448,10.845,39.337,18.014,46.69C-86.112-72.8-70.3-70.413-55.6-70.413c.209,0,.419,0,.628,0Z" transform="translate(118.463 198.533)" fill="#ecf0ec"/>
    </g>
  </g>
  <g id="Group_49" data-name="Group 49" transform="translate(161.182 59.424)">
    <path id="Path_37" data-name="Path 37" d="M-30.745,0H-66.256V26.232H-45.34L-66.25,47.143V68.674h21.34l21.1-21.1v21.1H2.423V0Z" transform="translate(66.256)" fill="#ecf0ec"/>
  </g>
</svg>
